M48
; DRILL file KiCad 10.0.1 date 2026-08-25T15:43:42
; FORMAT={-:-/ absolute / metric / decimal}
; #@! TF.CreationDate,2026-08-25T15:43:42+03:00
; #@! TF.GenerationSoftware,Kicad,Pcbnew,10.0.1
; #@! TF.FileFunction,Plated,1,2,PTH
FMAT,2
METRIC
; #@! TA.AperFunction,Plated,PTH,ViaDrill
T1C0.300
; #@! TA.AperFunction,Plated,PTH,ViaDrill
T2C0.400
; #@! TA.AperFunction,Plated,PTH,ComponentDrill
T3C0.600
; #@! TA.AperFunction,Plated,PTH,ComponentDrill
T4C0.760
; #@! TA.AperFunction,Plated,PTH,ComponentDrill
T5C0.800
; #@! TA.AperFunction,Plated,PTH,ComponentDrill
T6C0.900
; #@! TA.AperFunction,Plated,PTH,ComponentDrill
T7C1.000
; #@! TA.AperFunction,Plated,PTH,ComponentDrill
T8C1.016
; #@! TA.AperFunction,Plated,PTH,ComponentDrill
T9C1.100
%
G90
G05
T1
X36.02Y-127.53
X36.86Y-92.26
X37.45Y-40.57
X38.33Y-106.91
X41.65Y-63.15
X41.84Y-72.79
X50.95Y-45.32
X51.5Y-96.16
X52.21Y-57.912
X53.24Y-84.88
X54.58Y-62.77
X56.515Y-82.525
X56.515Y-87.475
X57.785Y-82.525
X57.785Y-87.475
X58.97Y-127.85
X59.055Y-87.475
X59.06Y-63.4
X59.83Y-57.912
X60.325Y-87.475
X61.36Y-75.39
X62.37Y-57.912
X62.66Y-73.89
X62.7Y-81.59
X62.76Y-83.63
X63.72Y-82.48
X64.06Y-83.37
X65.07Y-73.83
X65.24Y-91.26
X65.35Y-82.11
X65.96Y-80.86
X66.16Y-86.98
X66.18Y-45.32
X66.38Y-75.97
X66.91Y-77.86
X67.16Y-89.76
X67.4Y-74.77
X67.51Y-100.78
X67.8Y-86.88
X68.09Y-90.58
X68.34Y-89.24
X71.48Y-89.84
X72.2Y-72.46
X72.59Y-41.01
X72.89Y-106.47
X73.15Y-61.72
X74.8Y-81.45
X79.18Y-126.38
X85.32Y-48.25
X86.51Y-54.63
X87.95Y-99.67
X88.56Y-42.91
X89.32Y-89.06
X89.48Y-61.66
X90.62Y-81.97
X90.9Y-106.91
X91.85Y-71.62
X93.13Y-125.54
X99.27Y-100.23
X100.11Y-105.41
X100.38Y-100.97
X101.012Y-82.525
X103.05Y-57.912
X103.06Y-92.24
X103.552Y-87.475
X103.56Y-41.01
X104.26Y-126.13
X104.352Y-79.78
X104.822Y-87.475
X105.01Y-80.84
X105.61Y-93.07
X106.48Y-80.87
X107.362Y-82.525
X108.13Y-57.912
X108.632Y-82.525
X110.67Y-57.912
X111.3Y-81.47
X111.69Y-61.11
X111.81Y-62.94
X112.99Y-92.97
X113.18Y-86.87
X113.51Y-89.64
X113.97Y-88.38
X113.98Y-81.34
X114.54Y-86.36
X115.06Y-81.14
X115.94Y-43.06
X117.81Y-85.37
X119.98Y-88.84
X120.2Y-125.41
X120.3Y-66.02
X120.33Y-54.63
X121.21Y-74.03
X125.6Y-83.3
X132.05Y-41.89
X133.25Y-67.97
X133.48Y-60.52
X134.26Y-73.67
X136.08Y-86.1
X140.95Y-91.67
X140.95Y-96.25
X144.09Y-123.98
X144.25Y-119.63
X145.68Y-68.43
X146.24Y-64.3
X146.56Y-107.58
X146.76Y-98.86
X147.01Y-38.06
X147.34Y-74.32
X147.37Y-102.79
X149.16Y-103.41
X149.275Y-82.525
X149.95Y-127.69
X151.37Y-125.68
X151.38Y-57.912
X151.815Y-87.475
X151.815Y-92.24
X153.085Y-87.475
X153.92Y-57.912
X154.14Y-129.05
X154.355Y-65.02
X154.355Y-87.475
X155.2Y-130.81
X155.625Y-87.475
X157.46Y-85.54
X157.82Y-78.45
X158.16Y-81.19
X158.93Y-128.88
X159.48Y-82.66
X159.49Y-130.34
X159.5Y-92.33
X160.03Y-110.05
X160.23Y-84.42
X160.48Y-88.57
X160.89Y-92.77
X160.99Y-105.04
X161.69Y-87.85
X162.15Y-131.42
X163.14Y-128.64
X164.46Y-63.06
X164.69Y-105.29
X165.17Y-81.68
X166.22Y-55.71
X166.99Y-131.1
X167.16Y-91.17
X167.52Y-62.61
X168.07Y-46.91
X168.12Y-46.09
X169.96Y-82.42
X170.25Y-70.22
X174.45Y-84.6
X179.375Y-50.005
X179.47Y-97.73
X181.62Y-49.98
X182.13Y-84.6
X182.42Y-91.22
X184.83Y-72.3
X186.23Y-116.24
X186.39Y-56.88
X186.65Y-65.86
X187.24Y-75.36
X188.13Y-105.59
X188.45Y-95.42
X191.14Y-72.17
X191.16Y-92.35
X191.45Y-99.99
X191.5Y-126.09
X192.16Y-47.71
X192.49Y-89.78
X193.16Y-63.58
X194.4Y-48.47
X195.7Y-99.03
X197.572Y-82.525
X198.843Y-87.475
X199.7Y-57.942
X201.382Y-87.475
X202.24Y-57.942
X202.44Y-43.36
X202.653Y-65.76
X202.653Y-87.475
X203.922Y-87.475
X204.78Y-57.942
X205.12Y-76.5
X205.925Y-77.375
X206.45Y-81.08
X206.92Y-91.87
X207.32Y-57.942
X207.72Y-82.48
X207.9Y-83.3
X207.93Y-84.53
X208.2Y-126.68
X209.56Y-64.56
X210.76Y-83.96
X210.76Y-94.01
X211.2Y-66.76
X211.99Y-44.4
X212.4Y-76.757
X212.49Y-61.63
X213.88Y-62.23
X214.2Y-111.89
X214.38Y-87.51
X214.4Y-76.757
X214.4Y-81.72
X214.42Y-69.6
X214.74Y-97.5
X215.69Y-69.6
X216.14Y-56.16
X216.38Y-81.02
X216.4Y-76.757
X216.65Y-65.46
X216.96Y-69.6
X218.09Y-62.46
X218.4Y-76.757
X218.67Y-43.19
X218.98Y-67.67
X220.52Y-67.67
X221.54Y-84.67
X221.69Y-60.4
X221.9Y-67.6
X222.7Y-81.97
X223.43Y-69.74
X224.01Y-94.17
X224.21Y-75.75
X224.27Y-81.54
X226.13Y-90.52
X226.79Y-127.85
X227.7Y-63.6
X228.88Y-64.39
X229.16Y-56.59
X229.63Y-37.68
X229.68Y-99.36
X230.33Y-44.36
X231.18Y-96.905
X231.67Y-65.752
X232.32Y-93.01
X232.66Y-69.153
X232.7Y-67.71
X232.81Y-91.04
X232.87Y-89.07
X234.1Y-53.38
X234.12Y-72.72
X234.46Y-116.24
X234.68Y-96.905
X235.975Y-105.455
X236.03Y-63.45
X236.06Y-68.29
X236.08Y-115.69
X236.11Y-93.06
X236.25Y-56.262
X236.79Y-72.63
X238.18Y-96.905
X238.49Y-106.205
X239.53Y-37.24
X239.66Y-52.04
X239.93Y-74.78
X240.09Y-44.06
X240.18Y-53.43
X240.3Y-97.06
X240.33Y-73.26
X240.65Y-91.21
X240.94Y-92.72
X241.28Y-53.35
X241.31Y-58.76
X243.49Y-55.0
X244.18Y-76.72
X245.02Y-70.2
X245.25Y-83.62
X245.3Y-72.74
X245.47Y-37.03
X246.11Y-59.29
X246.806Y-67.9
X247.95Y-48.79
X248.3Y-69.42
X248.58Y-68.21
X249.05Y-90.51
X249.17Y-76.76
X249.88Y-49.82
X250.1Y-63.04
X250.2Y-65.23
X250.37Y-77.61
X250.46Y-37.2
X250.954Y-83.64
X251.322Y-75.048
X251.48Y-72.74
X251.7Y-108.26
X252.09Y-74.06
X252.41Y-66.4
X252.81Y-74.69
X254.31Y-68.15
X254.432Y-52.957
X254.71Y-37.2
X255.19Y-70.63
X256.0Y-104.69
X256.67Y-58.77
X257.34Y-106.16
X257.77Y-71.99
X259.78Y-122.98
X261.93Y-75.55
X262.12Y-110.36
X263.25Y-69.44
X264.26Y-43.1
X264.53Y-108.47
X265.08Y-49.04
X266.63Y-128.73
X266.94Y-119.14
X267.04Y-53.25
X267.13Y-123.89
X267.86Y-48.61
X267.97Y-74.09
X268.04Y-111.72
X269.9Y-53.9
X270.18Y-67.28
X270.18Y-69.48
X270.73Y-105.18
X270.91Y-109.58
X272.11Y-74.01
X272.19Y-82.61
X272.19Y-89.65
X272.265Y-69.865
X272.68Y-54.82
X273.52Y-42.78
X273.52Y-43.97
X273.87Y-62.99
X274.05Y-69.58
X274.15Y-68.78
X274.26Y-53.97
X274.47Y-50.84
X275.017Y-70.38
X275.33Y-64.42
X276.2Y-71.18
X276.24Y-57.41
X276.83Y-116.02
X276.97Y-59.26
X277.18Y-74.942
X277.37Y-68.77
X277.43Y-76.78
X277.52Y-77.67
X277.912Y-68.181
X277.98Y-74.942
X278.41Y-100.04
X278.74Y-104.97
X278.75Y-101.92
X278.78Y-74.942
X279.21Y-102.78
X279.22Y-119.9
X279.58Y-66.617
X279.64Y-106.36
X279.7Y-107.98
X279.81Y-58.04
X280.0Y-62.62
X280.06Y-60.36
X280.38Y-66.617
X280.87Y-98.94
X280.97Y-49.36
X281.0Y-39.688
X281.18Y-66.617
X281.98Y-66.617
X284.18Y-49.21
X284.31Y-44.2
X284.39Y-61.6
X284.7Y-66.6
X284.72Y-64.01
X284.78Y-58.02
X285.39Y-60.24
X285.45Y-119.9
X285.78Y-62.7
X285.82Y-64.63
X286.08Y-100.1
X286.16Y-105.95
X286.17Y-98.94
X286.23Y-65.17
X286.51Y-103.16
X286.61Y-104.73
X286.67Y-72.7
X287.1Y-55.47
X287.13Y-46.33
X287.26Y-51.74
X287.43Y-44.45
X287.52Y-76.52
X287.7Y-72.74
X287.96Y-81.91
X288.17Y-93.12
X288.23Y-89.32
X288.56Y-84.63
X289.36Y-71.79
X289.6Y-36.77
X289.68Y-64.4
X289.77Y-57.07
X290.77Y-66.4
X291.65Y-119.53
X293.88Y-44.06
X294.5Y-78.67
X295.9Y-57.942
X296.45Y-93.31
X297.2Y-121.08
X297.75Y-80.06
X299.14Y-45.53
X299.41Y-80.02
X299.45Y-94.41
X299.82Y-89.93
X300.99Y-57.942
X301.61Y-72.74
X301.975Y-100.615
X302.3Y-97.74
X302.36Y-93.02
X302.94Y-102.01
X303.21Y-94.25
X303.57Y-89.77
X304.54Y-93.35
X304.62Y-103.94
X304.65Y-91.33
X304.7Y-37.16
X305.555Y-82.925
X305.62Y-67.06
X306.05Y-92.75
X306.69Y-63.54
X306.825Y-87.875
X306.966Y-77.866
X307.63Y-103.2
X307.71Y-96.245
X307.79Y-74.438
X307.96Y-80.62
X308.28Y-67.02
X308.3Y-50.91
X309.3Y-108.59
X309.365Y-87.875
X309.4Y-98.44
X309.5Y-72.46
X309.52Y-96.09
X309.95Y-65.43
X310.07Y-73.95
X310.19Y-103.61
X310.255Y-85.935
X310.58Y-95.74
X310.96Y-73.14
X311.08Y-89.61
X311.14Y-98.44
X311.26Y-72.46
X311.71Y-129.15
X312.36Y-67.2
X312.79Y-96.157
X312.87Y-74.35
X313.16Y-86.46
X313.175Y-82.925
X313.25Y-44.27
X313.359Y-91.559
X314.09Y-81.14
X314.11Y-103.09
X314.3Y-78.5
X314.94Y-76.83
X315.35Y-94.5
X315.86Y-82.05
X315.86Y-83.32
X316.01Y-84.65
X316.5Y-52.91
X318.77Y-114.54
X318.93Y-79.62
X319.74Y-115.5
X320.53Y-82.34
X320.93Y-62.15
X322.78Y-45.19
X323.7Y-92.31
X325.12Y-55.57
X325.35Y-124.7
X325.35Y-127.26
X329.71Y-74.45
X329.94Y-84.67
X330.37Y-67.01
X330.44Y-53.05
X331.54Y-75.71
X331.825Y-82.925
X332.36Y-95.945
X334.365Y-87.875
X334.4Y-72.91
X334.87Y-66.82
X335.05Y-84.8
X335.3Y-73.08
X335.49Y-107.32
X336.81Y-44.49
X336.93Y-86.1
X337.22Y-64.6
X337.33Y-74.45
X337.44Y-95.858
X338.175Y-82.925
X339.49Y-66.59
X339.85Y-58.03
X339.88Y-90.14
X340.16Y-64.55
X342.12Y-72.84
X342.74Y-63.82
X344.12Y-110.007
X344.19Y-57.94
X346.3Y-73.03
X346.67Y-110.007
X346.72Y-57.94
X346.96Y-87.95
X349.2Y-110.007
X352.85Y-101.16
X352.88Y-39.26
X355.48Y-71.07
X362.29Y-42.29
X362.32Y-108.97
X362.73Y-90.4
X362.95Y-66.01
X363.29Y-71.38
X363.83Y-99.18
X363.98Y-59.18
X365.54Y-78.61
T2
X168.72Y-121.34
X178.01Y-81.55
X184.54Y-82.93
X220.89Y-96.3
X220.89Y-102.6
X246.824Y-101.46
X261.024Y-84.75
X265.53Y-89.3
X331.607Y-122.1
X332.8Y-131.8
T3
X365.78Y-128.86
X366.78Y-126.26
X366.78Y-131.46
T4
X164.71Y-74.0
X164.71Y-108.5
X165.98Y-76.54
X165.98Y-111.04
X167.25Y-74.0
X167.25Y-108.5
X168.52Y-76.54
X168.52Y-111.04
X169.79Y-74.0
X169.79Y-108.5
X171.06Y-76.54
X171.06Y-111.04
X172.33Y-74.0
X172.33Y-108.5
X173.6Y-76.54
X173.6Y-111.04
X230.4Y-74.0
X230.4Y-108.5
X231.67Y-76.54
X231.67Y-111.04
X232.94Y-74.0
X232.94Y-108.5
X234.21Y-76.54
X234.21Y-111.04
X235.48Y-74.0
X235.48Y-108.5
X236.75Y-76.54
X236.75Y-111.04
X238.02Y-74.0
X238.02Y-108.5
X239.29Y-76.54
X239.29Y-111.04
T5
X52.2Y-53.895
X52.2Y-114.095
X54.74Y-53.895
X54.74Y-114.095
X57.28Y-53.895
X57.28Y-114.095
X59.82Y-53.895
X59.82Y-114.095
X62.36Y-53.895
X62.36Y-114.095
X100.52Y-53.895
X100.52Y-114.095
X103.06Y-53.895
X103.06Y-114.095
X105.6Y-53.895
X105.6Y-114.095
X108.14Y-53.895
X108.14Y-114.095
X110.68Y-53.895
X110.68Y-114.095
X148.84Y-53.895
X148.84Y-114.095
X151.38Y-53.895
X151.38Y-114.095
X153.92Y-53.895
X153.92Y-114.095
X156.46Y-53.895
X156.46Y-114.095
X159.0Y-53.895
X159.0Y-114.095
X197.16Y-53.895
X197.16Y-114.095
X199.7Y-53.895
X199.7Y-114.095
X202.24Y-53.895
X202.24Y-114.095
X204.78Y-53.895
X204.78Y-114.095
X207.32Y-53.895
X207.32Y-114.095
X293.33Y-53.895
X293.33Y-114.095
X295.87Y-53.895
X295.87Y-114.095
X298.41Y-53.895
X298.41Y-114.095
X300.95Y-53.895
X300.95Y-114.095
X303.49Y-53.895
X303.49Y-114.095
X305.24Y-70.09
X305.24Y-100.57
X307.78Y-70.09
X307.78Y-100.57
X310.32Y-70.09
X310.32Y-100.57
X312.86Y-70.09
X312.86Y-100.57
X315.4Y-70.09
X315.4Y-100.57
X329.74Y-70.09
X329.74Y-100.57
X332.28Y-70.09
X332.28Y-100.57
X334.82Y-70.09
X334.82Y-100.57
X337.36Y-70.09
X337.36Y-100.57
X339.9Y-70.09
X339.9Y-100.57
X341.645Y-53.895
X341.645Y-114.095
X344.185Y-53.895
X344.185Y-114.095
X346.725Y-53.895
X346.725Y-114.095
X349.265Y-53.895
X349.265Y-114.095
X351.805Y-53.895
X351.805Y-114.095
T6
X230.671Y-85.814
X232.83Y-85.814
X234.989Y-85.814
X237.148Y-85.814
T7
X160.99Y-43.89
X163.53Y-43.89
X166.07Y-43.89
X168.61Y-43.89
X173.76Y-43.89
X176.3Y-43.89
X178.84Y-43.89
X181.38Y-43.89
X186.45Y-43.89
X188.99Y-43.89
X191.53Y-43.89
X194.07Y-43.89
X196.61Y-43.89
X246.82Y-119.76
X254.42Y-119.76
X275.87Y-43.86
X275.87Y-46.4
X278.41Y-43.86
X278.41Y-46.4
X280.95Y-43.86
X280.95Y-46.4
T8
X341.18Y-122.08
X341.18Y-124.62
X341.18Y-127.16
X341.18Y-129.7
X341.18Y-132.24
T9
X273.5Y-123.5
X273.5Y-128.0
X280.0Y-123.5
X280.0Y-128.0
X283.5Y-123.5
X283.5Y-128.0
X284.12Y-41.89
X284.12Y-46.39
X290.0Y-123.5
X290.0Y-128.0
X290.62Y-41.89
X290.62Y-46.39
X293.5Y-123.5
X293.5Y-128.0
X300.0Y-123.5
X300.0Y-128.0
M30
