%TF.GenerationSoftware,KiCad,Pcbnew,10.0.1*%
%TF.CreationDate,2026-08-25T15:43:37+03:00*%
%TF.ProjectId,Queue_Local_Display_ATmega328PB,51756575-655f-44c6-9f63-616c5f446973,rev?*%
%TF.SameCoordinates,Original*%
%TF.FileFunction,Legend,Top*%
%TF.FilePolarity,Positive*%
%FSLAX46Y46*%
G04 Gerber Fmt 4.6, Leading zero omitted, Abs format (unit mm)*
G04 Created by KiCad (PCBNEW 10.0.1) date 2026-08-25 15:43:37*
%MOMM*%
%LPD*%
G01*
G04 APERTURE LIST*
%ADD10C,0.150000*%
%ADD11C,0.300000*%
%ADD12C,0.120000*%
%ADD13C,0.269379*%
%ADD14C,0.000000*%
G04 APERTURE END LIST*
D10*
X278130951Y-130654819D02*
X278130951Y-129654819D01*
X278130951Y-129654819D02*
X277892856Y-129654819D01*
X277892856Y-129654819D02*
X277749999Y-129702438D01*
X277749999Y-129702438D02*
X277654761Y-129797676D01*
X277654761Y-129797676D02*
X277607142Y-129892914D01*
X277607142Y-129892914D02*
X277559523Y-130083390D01*
X277559523Y-130083390D02*
X277559523Y-130226247D01*
X277559523Y-130226247D02*
X277607142Y-130416723D01*
X277607142Y-130416723D02*
X277654761Y-130511961D01*
X277654761Y-130511961D02*
X277749999Y-130607200D01*
X277749999Y-130607200D02*
X277892856Y-130654819D01*
X277892856Y-130654819D02*
X278130951Y-130654819D01*
X276940475Y-129654819D02*
X276749999Y-129654819D01*
X276749999Y-129654819D02*
X276654761Y-129702438D01*
X276654761Y-129702438D02*
X276559523Y-129797676D01*
X276559523Y-129797676D02*
X276511904Y-129988152D01*
X276511904Y-129988152D02*
X276511904Y-130321485D01*
X276511904Y-130321485D02*
X276559523Y-130511961D01*
X276559523Y-130511961D02*
X276654761Y-130607200D01*
X276654761Y-130607200D02*
X276749999Y-130654819D01*
X276749999Y-130654819D02*
X276940475Y-130654819D01*
X276940475Y-130654819D02*
X277035713Y-130607200D01*
X277035713Y-130607200D02*
X277130951Y-130511961D01*
X277130951Y-130511961D02*
X277178570Y-130321485D01*
X277178570Y-130321485D02*
X277178570Y-129988152D01*
X277178570Y-129988152D02*
X277130951Y-129797676D01*
X277130951Y-129797676D02*
X277035713Y-129702438D01*
X277035713Y-129702438D02*
X276940475Y-129654819D01*
X276178570Y-129654819D02*
X275940475Y-130654819D01*
X275940475Y-130654819D02*
X275749999Y-129940533D01*
X275749999Y-129940533D02*
X275559523Y-130654819D01*
X275559523Y-130654819D02*
X275321428Y-129654819D01*
X274940475Y-130654819D02*
X274940475Y-129654819D01*
X274940475Y-129654819D02*
X274369047Y-130654819D01*
X274369047Y-130654819D02*
X274369047Y-129654819D01*
X287035713Y-129654819D02*
X287035713Y-130464342D01*
X287035713Y-130464342D02*
X286988094Y-130559580D01*
X286988094Y-130559580D02*
X286940475Y-130607200D01*
X286940475Y-130607200D02*
X286845237Y-130654819D01*
X286845237Y-130654819D02*
X286654761Y-130654819D01*
X286654761Y-130654819D02*
X286559523Y-130607200D01*
X286559523Y-130607200D02*
X286511904Y-130559580D01*
X286511904Y-130559580D02*
X286464285Y-130464342D01*
X286464285Y-130464342D02*
X286464285Y-129654819D01*
X285988094Y-130654819D02*
X285988094Y-129654819D01*
X285988094Y-129654819D02*
X285607142Y-129654819D01*
X285607142Y-129654819D02*
X285511904Y-129702438D01*
X285511904Y-129702438D02*
X285464285Y-129750057D01*
X285464285Y-129750057D02*
X285416666Y-129845295D01*
X285416666Y-129845295D02*
X285416666Y-129988152D01*
X285416666Y-129988152D02*
X285464285Y-130083390D01*
X285464285Y-130083390D02*
X285511904Y-130131009D01*
X285511904Y-130131009D02*
X285607142Y-130178628D01*
X285607142Y-130178628D02*
X285988094Y-130178628D01*
X297369047Y-130607200D02*
X297226190Y-130654819D01*
X297226190Y-130654819D02*
X296988095Y-130654819D01*
X296988095Y-130654819D02*
X296892857Y-130607200D01*
X296892857Y-130607200D02*
X296845238Y-130559580D01*
X296845238Y-130559580D02*
X296797619Y-130464342D01*
X296797619Y-130464342D02*
X296797619Y-130369104D01*
X296797619Y-130369104D02*
X296845238Y-130273866D01*
X296845238Y-130273866D02*
X296892857Y-130226247D01*
X296892857Y-130226247D02*
X296988095Y-130178628D01*
X296988095Y-130178628D02*
X297178571Y-130131009D01*
X297178571Y-130131009D02*
X297273809Y-130083390D01*
X297273809Y-130083390D02*
X297321428Y-130035771D01*
X297321428Y-130035771D02*
X297369047Y-129940533D01*
X297369047Y-129940533D02*
X297369047Y-129845295D01*
X297369047Y-129845295D02*
X297321428Y-129750057D01*
X297321428Y-129750057D02*
X297273809Y-129702438D01*
X297273809Y-129702438D02*
X297178571Y-129654819D01*
X297178571Y-129654819D02*
X296940476Y-129654819D01*
X296940476Y-129654819D02*
X296797619Y-129702438D01*
X296369047Y-130131009D02*
X296035714Y-130131009D01*
X295892857Y-130654819D02*
X296369047Y-130654819D01*
X296369047Y-130654819D02*
X296369047Y-129654819D01*
X296369047Y-129654819D02*
X295892857Y-129654819D01*
X295607142Y-129654819D02*
X295035714Y-129654819D01*
X295321428Y-130654819D02*
X295321428Y-129654819D01*
D11*
X242305714Y-85812614D02*
X242520000Y-85884042D01*
X242520000Y-85884042D02*
X242591429Y-85955471D01*
X242591429Y-85955471D02*
X242662857Y-86098328D01*
X242662857Y-86098328D02*
X242662857Y-86312614D01*
X242662857Y-86312614D02*
X242591429Y-86455471D01*
X242591429Y-86455471D02*
X242520000Y-86526900D01*
X242520000Y-86526900D02*
X242377143Y-86598328D01*
X242377143Y-86598328D02*
X241805714Y-86598328D01*
X241805714Y-86598328D02*
X241805714Y-85098328D01*
X241805714Y-85098328D02*
X242305714Y-85098328D01*
X242305714Y-85098328D02*
X242448572Y-85169757D01*
X242448572Y-85169757D02*
X242520000Y-85241185D01*
X242520000Y-85241185D02*
X242591429Y-85384042D01*
X242591429Y-85384042D02*
X242591429Y-85526900D01*
X242591429Y-85526900D02*
X242520000Y-85669757D01*
X242520000Y-85669757D02*
X242448572Y-85741185D01*
X242448572Y-85741185D02*
X242305714Y-85812614D01*
X242305714Y-85812614D02*
X241805714Y-85812614D01*
X243162857Y-85598328D02*
X243520000Y-86598328D01*
X243877143Y-85598328D02*
X243520000Y-86598328D01*
X243520000Y-86598328D02*
X243377143Y-86955471D01*
X243377143Y-86955471D02*
X243305714Y-87026900D01*
X243305714Y-87026900D02*
X243162857Y-87098328D01*
X244448571Y-86598328D02*
X244448571Y-85098328D01*
X244448571Y-85098328D02*
X245305714Y-86598328D01*
X245305714Y-86598328D02*
X245305714Y-85098328D01*
X245948572Y-86526900D02*
X246162858Y-86598328D01*
X246162858Y-86598328D02*
X246520000Y-86598328D01*
X246520000Y-86598328D02*
X246662858Y-86526900D01*
X246662858Y-86526900D02*
X246734286Y-86455471D01*
X246734286Y-86455471D02*
X246805715Y-86312614D01*
X246805715Y-86312614D02*
X246805715Y-86169757D01*
X246805715Y-86169757D02*
X246734286Y-86026900D01*
X246734286Y-86026900D02*
X246662858Y-85955471D01*
X246662858Y-85955471D02*
X246520000Y-85884042D01*
X246520000Y-85884042D02*
X246234286Y-85812614D01*
X246234286Y-85812614D02*
X246091429Y-85741185D01*
X246091429Y-85741185D02*
X246020000Y-85669757D01*
X246020000Y-85669757D02*
X245948572Y-85526900D01*
X245948572Y-85526900D02*
X245948572Y-85384042D01*
X245948572Y-85384042D02*
X246020000Y-85241185D01*
X246020000Y-85241185D02*
X246091429Y-85169757D01*
X246091429Y-85169757D02*
X246234286Y-85098328D01*
X246234286Y-85098328D02*
X246591429Y-85098328D01*
X246591429Y-85098328D02*
X246805715Y-85169757D01*
D10*
X246429048Y-117293866D02*
X247190953Y-117293866D01*
X246810000Y-117674819D02*
X246810000Y-116912914D01*
%TO.C,R68*%
D12*
X332292936Y-121365000D02*
X332747064Y-121365000D01*
X332292936Y-122835000D02*
X332747064Y-122835000D01*
%TO.C,JP1*%
X235280000Y-63750000D02*
X235280000Y-63150000D01*
X235980000Y-62450000D02*
X237380000Y-62450000D01*
X237380000Y-64450000D02*
X235980000Y-64450000D01*
X238080000Y-63150000D02*
X238080000Y-63750000D01*
X235280000Y-63150000D02*
G75*
G02*
X235980000Y-62450000I700000J0D01*
G01*
X235980000Y-64450000D02*
G75*
G02*
X235280000Y-63750000I0J700000D01*
G01*
X237380000Y-62450000D02*
G75*
G02*
X238080000Y-63150000I1J-699999D01*
G01*
X238080000Y-63750000D02*
G75*
G02*
X237380000Y-64450000I-699999J-1D01*
G01*
%TO.C,AFF2*%
X322700000Y-101460000D02*
X322700000Y-68360000D01*
X323840000Y-102590000D02*
X346930000Y-102584976D01*
D13*
X324758274Y-96484147D02*
X340472070Y-96484147D01*
X327003103Y-85260000D02*
X324758274Y-96484147D01*
X329247930Y-74035853D02*
X327003103Y-85260000D01*
X329247930Y-74035853D02*
X344961726Y-74035853D01*
X340472070Y-96484147D02*
X342716897Y-85260000D01*
X342716897Y-85260000D02*
X327003103Y-85260000D01*
X344961726Y-74035853D02*
X342716897Y-85260000D01*
D12*
X346930000Y-68360000D02*
X322700000Y-68360000D01*
X346930000Y-102584976D02*
X346930000Y-68360000D01*
X346165965Y-97950000D02*
G75*
G02*
X342874035Y-97950000I-1645965J0D01*
G01*
X342874035Y-97950000D02*
G75*
G02*
X346165965Y-97950000I1645965J0D01*
G01*
%TO.C,R81*%
X230657500Y-97967258D02*
X230657500Y-97492742D01*
X231702500Y-97967258D02*
X231702500Y-97492742D01*
%TO.C,D6*%
X231349500Y-84269459D02*
X231349500Y-84734459D01*
X231349500Y-86894459D02*
X231349500Y-87359459D01*
X231349500Y-84269629D02*
G75*
G02*
X236697315Y-84733632I2560000J-1544830D01*
G01*
X231654816Y-84734459D02*
G75*
G02*
X236163979Y-84734030I2254684J-1080000D01*
G01*
X236163979Y-86894888D02*
G75*
G02*
X231654816Y-86894459I-2254479J1080429D01*
G01*
X236697315Y-86895286D02*
G75*
G02*
X231349500Y-87359289I-2787815J1080827D01*
G01*
%TO.C,D14*%
X244783770Y-106214094D02*
X248668770Y-106214094D01*
X248668770Y-103944094D02*
X244783770Y-103944094D01*
X248668770Y-106214094D02*
X248668770Y-103944094D01*
%TO.C,U12*%
X129895000Y-49025000D02*
X177940000Y-49025000D01*
X129895000Y-118965000D02*
X129895000Y-49025000D01*
X146260000Y-92975000D02*
X147560000Y-94475000D01*
X147120000Y-86975000D02*
X146260000Y-92975000D01*
D14*
X147560000Y-94475000D02*
X147559999Y-94475000D01*
X147559999Y-94475000D01*
X147559999Y-94475000D01*
X147559999Y-94475000D01*
X147559999Y-94475000D01*
X147559999Y-94475000D01*
X147559999Y-94475000D01*
X147559999Y-94474999D01*
X147559999Y-94474999D01*
X147559999Y-94474999D01*
X147559999Y-94474999D01*
X147559999Y-94474999D01*
X147560000Y-94474999D01*
X147560000Y-94474999D01*
X147560000Y-94474999D01*
X147560000Y-94474999D01*
X147560000Y-94474999D01*
X147560000Y-94474999D01*
X147560000Y-94474999D01*
X147560000Y-94474999D01*
X147560000Y-94474999D01*
X147560000Y-94474999D01*
X147560000Y-94474999D01*
X147560000Y-94474999D01*
X147560001Y-94474999D01*
X147560001Y-94474999D01*
X147560001Y-94474999D01*
X147560001Y-94474999D01*
X147560001Y-94474999D01*
X147560001Y-94474999D01*
X147560001Y-94475000D01*
X147560001Y-94475000D01*
X147560001Y-94475000D01*
X147560001Y-94475000D01*
X147560001Y-94475000D01*
X147560001Y-94475000D01*
X147560001Y-94475000D01*
X147560000Y-94475000D01*
X147560000Y-94475000D02*
X147560001Y-94475000D01*
X147560001Y-94475000D01*
X147560001Y-94475000D01*
X147560001Y-94475000D01*
X147560001Y-94475000D01*
X147560001Y-94475000D01*
X147560001Y-94475001D01*
X147560001Y-94475001D01*
X147560001Y-94475001D01*
X147560001Y-94475001D01*
X147560001Y-94475001D01*
X147560001Y-94475001D01*
X147560001Y-94475001D01*
X147560000Y-94475001D01*
X147560000Y-94475001D01*
X147560000Y-94475001D01*
X147560000Y-94475001D01*
X147560000Y-94475001D01*
X147560000Y-94475001D01*
X147560000Y-94475001D01*
X147560000Y-94475001D01*
X147560000Y-94475001D01*
X147560000Y-94475001D01*
X147560000Y-94475001D01*
X147560000Y-94475001D01*
X147559999Y-94475001D01*
X147559999Y-94475001D01*
X147559999Y-94475001D01*
X147559999Y-94475001D01*
X147559999Y-94475001D01*
X147559999Y-94475001D01*
X147559999Y-94475000D01*
X147559999Y-94475000D01*
X147559999Y-94475000D01*
X147559999Y-94475000D01*
X147559999Y-94475000D01*
X147559999Y-94475000D01*
X147560000Y-94475000D01*
D12*
X147560000Y-94475000D02*
X149260000Y-92975000D01*
X147640000Y-83175000D02*
X148940000Y-84675000D01*
X147855000Y-118405000D02*
X149855000Y-118405000D01*
D14*
X147900000Y-94875000D02*
X147899999Y-94875000D01*
X147899999Y-94875000D01*
X147899999Y-94875000D01*
X147899999Y-94875000D01*
X147899999Y-94875000D01*
X147899999Y-94875000D01*
X147899999Y-94875000D01*
X147899999Y-94874999D01*
X147899999Y-94874999D01*
X147899999Y-94874999D01*
X147899999Y-94874999D01*
X147899999Y-94874999D01*
X147900000Y-94874999D01*
X147900000Y-94874999D01*
X147900000Y-94874999D01*
X147900000Y-94874999D01*
X147900000Y-94874999D01*
X147900000Y-94874999D01*
X147900000Y-94874999D01*
X147900000Y-94874999D01*
X147900000Y-94874999D01*
X147900000Y-94874999D01*
X147900000Y-94874999D01*
X147900000Y-94874999D01*
X147900001Y-94874999D01*
X147900001Y-94874999D01*
X147900001Y-94874999D01*
X147900001Y-94874999D01*
X147900001Y-94874999D01*
X147900001Y-94874999D01*
X147900001Y-94875000D01*
X147900001Y-94875000D01*
X147900001Y-94875000D01*
X147900001Y-94875000D01*
X147900001Y-94875000D01*
X147900001Y-94875000D01*
X147900001Y-94875000D01*
X147900000Y-94875000D01*
X147900000Y-94875000D02*
X147900001Y-94875000D01*
X147900001Y-94875000D01*
X147900001Y-94875000D01*
X147900001Y-94875000D01*
X147900001Y-94875000D01*
X147900001Y-94875000D01*
X147900001Y-94875001D01*
X147900001Y-94875001D01*
X147900001Y-94875001D01*
X147900001Y-94875001D01*
X147900001Y-94875001D01*
X147900001Y-94875001D01*
X147900001Y-94875001D01*
X147900000Y-94875001D01*
X147900000Y-94875001D01*
X147900000Y-94875001D01*
X147900000Y-94875001D01*
X147900000Y-94875001D01*
X147900000Y-94875001D01*
X147900000Y-94875001D01*
X147900000Y-94875001D01*
X147900000Y-94875001D01*
X147900000Y-94875001D01*
X147900000Y-94875001D01*
X147900000Y-94875001D01*
X147899999Y-94875001D01*
X147899999Y-94875001D01*
X147899999Y-94875001D01*
X147899999Y-94875001D01*
X147899999Y-94875001D01*
X147899999Y-94875001D01*
X147899999Y-94875000D01*
X147899999Y-94875000D01*
X147899999Y-94875000D01*
X147899999Y-94875000D01*
X147899999Y-94875000D01*
X147899999Y-94875000D01*
X147900000Y-94875000D01*
D12*
X147900000Y-94875000D02*
X149620000Y-93375000D01*
X148500000Y-77175000D02*
X147640000Y-83175000D01*
X148820000Y-85475000D02*
X147120000Y-86975000D01*
D14*
X148940000Y-84675000D02*
X148939999Y-84675000D01*
X148939999Y-84675000D01*
X148939999Y-84675000D01*
X148939999Y-84675000D01*
X148939999Y-84675000D01*
X148939999Y-84675000D01*
X148939999Y-84675000D01*
X148939999Y-84674999D01*
X148939999Y-84674999D01*
X148939999Y-84674999D01*
X148939999Y-84674999D01*
X148939999Y-84674999D01*
X148940000Y-84674999D01*
X148940000Y-84674999D01*
X148940000Y-84674999D01*
X148940000Y-84674999D01*
X148940000Y-84674999D01*
X148940000Y-84674999D01*
X148940000Y-84674999D01*
X148940000Y-84674999D01*
X148940000Y-84674999D01*
X148940000Y-84674999D01*
X148940000Y-84674999D01*
X148940000Y-84674999D01*
X148940001Y-84674999D01*
X148940001Y-84674999D01*
X148940001Y-84674999D01*
X148940001Y-84674999D01*
X148940001Y-84674999D01*
X148940001Y-84674999D01*
X148940001Y-84675000D01*
X148940001Y-84675000D01*
X148940001Y-84675000D01*
X148940001Y-84675000D01*
X148940001Y-84675000D01*
X148940001Y-84675000D01*
X148940001Y-84675000D01*
X148940000Y-84675000D01*
X148940000Y-84675000D02*
X148940001Y-84675000D01*
X148940001Y-84675000D01*
X148940001Y-84675000D01*
X148940001Y-84675000D01*
X148940001Y-84675000D01*
X148940001Y-84675000D01*
X148940001Y-84675001D01*
X148940001Y-84675001D01*
X148940001Y-84675001D01*
X148940001Y-84675001D01*
X148940001Y-84675001D01*
X148940001Y-84675001D01*
X148940001Y-84675001D01*
X148940000Y-84675001D01*
X148940000Y-84675001D01*
X148940000Y-84675001D01*
X148940000Y-84675001D01*
X148940000Y-84675001D01*
X148940000Y-84675001D01*
X148940000Y-84675001D01*
X148940000Y-84675001D01*
X148940000Y-84675001D01*
X148940000Y-84675001D01*
X148940000Y-84675001D01*
X148940000Y-84675001D01*
X148939999Y-84675001D01*
X148939999Y-84675001D01*
X148939999Y-84675001D01*
X148939999Y-84675001D01*
X148939999Y-84675001D01*
X148939999Y-84675001D01*
X148939999Y-84675000D01*
X148939999Y-84675000D01*
X148939999Y-84675000D01*
X148939999Y-84675000D01*
X148939999Y-84675000D01*
X148939999Y-84675000D01*
X148940000Y-84675000D01*
D12*
X148940000Y-84675000D02*
X150640000Y-83175000D01*
X149200000Y-96375000D02*
X147900000Y-94875000D01*
X149260000Y-92975000D02*
X150120000Y-86975000D01*
D14*
X149280000Y-85075000D02*
X149279999Y-85075000D01*
X149279999Y-85075000D01*
X149279999Y-85075000D01*
X149279999Y-85075000D01*
X149279999Y-85075000D01*
X149279999Y-85075000D01*
X149279999Y-85075000D01*
X149279999Y-85074999D01*
X149279999Y-85074999D01*
X149279999Y-85074999D01*
X149279999Y-85074999D01*
X149279999Y-85074999D01*
X149280000Y-85074999D01*
X149280000Y-85074999D01*
X149280000Y-85074999D01*
X149280000Y-85074999D01*
X149280000Y-85074999D01*
X149280000Y-85074999D01*
X149280000Y-85074999D01*
X149280000Y-85074999D01*
X149280000Y-85074999D01*
X149280000Y-85074999D01*
X149280000Y-85074999D01*
X149280000Y-85074999D01*
X149280001Y-85074999D01*
X149280001Y-85074999D01*
X149280001Y-85074999D01*
X149280001Y-85074999D01*
X149280001Y-85074999D01*
X149280001Y-85074999D01*
X149280001Y-85075000D01*
X149280001Y-85075000D01*
X149280001Y-85075000D01*
X149280001Y-85075000D01*
X149280001Y-85075000D01*
X149280001Y-85075000D01*
X149280001Y-85075000D01*
X149280000Y-85075000D01*
X149280000Y-85075000D02*
X149280001Y-85075000D01*
X149280001Y-85075000D01*
X149280001Y-85075000D01*
X149280001Y-85075000D01*
X149280001Y-85075000D01*
X149280001Y-85075000D01*
X149280001Y-85075001D01*
X149280001Y-85075001D01*
X149280001Y-85075001D01*
X149280001Y-85075001D01*
X149280001Y-85075001D01*
X149280001Y-85075001D01*
X149280001Y-85075001D01*
X149280000Y-85075001D01*
X149280000Y-85075001D01*
X149280000Y-85075001D01*
X149280000Y-85075001D01*
X149280000Y-85075001D01*
X149280000Y-85075001D01*
X149280000Y-85075001D01*
X149280000Y-85075001D01*
X149280000Y-85075001D01*
X149280000Y-85075001D01*
X149280000Y-85075001D01*
X149280000Y-85075001D01*
X149279999Y-85075001D01*
X149279999Y-85075001D01*
X149279999Y-85075001D01*
X149279999Y-85075001D01*
X149279999Y-85075001D01*
X149279999Y-85075001D01*
X149279999Y-85075000D01*
X149279999Y-85075000D01*
X149279999Y-85075000D01*
X149279999Y-85075000D01*
X149279999Y-85075000D01*
X149279999Y-85075000D01*
X149280000Y-85075000D01*
D12*
X149280000Y-85075000D02*
X151000000Y-83575000D01*
X149620000Y-93375000D02*
X155620000Y-93375000D01*
X150120000Y-86975000D02*
X148820000Y-85475000D01*
X150200000Y-75675000D02*
X148500000Y-77175000D01*
X150560000Y-86575000D02*
X149280000Y-85075000D01*
X150640000Y-83175000D02*
X151500000Y-77175000D01*
D14*
X150660000Y-75275000D02*
X150659999Y-75275000D01*
X150659999Y-75275000D01*
X150659999Y-75275000D01*
X150659999Y-75275000D01*
X150659999Y-75275000D01*
X150659999Y-75275000D01*
X150659999Y-75275000D01*
X150659999Y-75274999D01*
X150659999Y-75274999D01*
X150659999Y-75274999D01*
X150659999Y-75274999D01*
X150659999Y-75274999D01*
X150660000Y-75274999D01*
X150660000Y-75274999D01*
X150660000Y-75274999D01*
X150660000Y-75274999D01*
X150660000Y-75274999D01*
X150660000Y-75274999D01*
X150660000Y-75274999D01*
X150660000Y-75274999D01*
X150660000Y-75274999D01*
X150660000Y-75274999D01*
X150660000Y-75274999D01*
X150660000Y-75274999D01*
X150660001Y-75274999D01*
X150660001Y-75274999D01*
X150660001Y-75274999D01*
X150660001Y-75274999D01*
X150660001Y-75274999D01*
X150660001Y-75274999D01*
X150660001Y-75275000D01*
X150660001Y-75275000D01*
X150660001Y-75275000D01*
X150660001Y-75275000D01*
X150660001Y-75275000D01*
X150660001Y-75275000D01*
X150660001Y-75275000D01*
X150660000Y-75275000D01*
X150660000Y-75275000D02*
X150660001Y-75275000D01*
X150660001Y-75275000D01*
X150660001Y-75275000D01*
X150660001Y-75275000D01*
X150660001Y-75275000D01*
X150660001Y-75275000D01*
X150660001Y-75275001D01*
X150660001Y-75275001D01*
X150660001Y-75275001D01*
X150660001Y-75275001D01*
X150660001Y-75275001D01*
X150660001Y-75275001D01*
X150660001Y-75275001D01*
X150660000Y-75275001D01*
X150660000Y-75275001D01*
X150660000Y-75275001D01*
X150660000Y-75275001D01*
X150660000Y-75275001D01*
X150660000Y-75275001D01*
X150660000Y-75275001D01*
X150660000Y-75275001D01*
X150660000Y-75275001D01*
X150660000Y-75275001D01*
X150660000Y-75275001D01*
X150660000Y-75275001D01*
X150659999Y-75275001D01*
X150659999Y-75275001D01*
X150659999Y-75275001D01*
X150659999Y-75275001D01*
X150659999Y-75275001D01*
X150659999Y-75275001D01*
X150659999Y-75275000D01*
X150659999Y-75275000D01*
X150659999Y-75275000D01*
X150659999Y-75275000D01*
X150659999Y-75275000D01*
X150659999Y-75275000D01*
X150660000Y-75275000D01*
D12*
X150660000Y-75275000D02*
X152360000Y-73775000D01*
X151000000Y-83575000D02*
X157000000Y-83575000D01*
X151500000Y-77175000D02*
X150200000Y-75675000D01*
X151940000Y-76775000D02*
X150660000Y-75275000D01*
X152360000Y-73775000D02*
X158360000Y-73775000D01*
X155200000Y-96375000D02*
X149200000Y-96375000D01*
X155620000Y-93375000D02*
X156900000Y-94875000D01*
X156060000Y-92975000D02*
X157360000Y-94475000D01*
X156560000Y-86575000D02*
X150560000Y-86575000D01*
X156900000Y-94875000D02*
X155200000Y-96375000D01*
X156920000Y-86975000D02*
X156060000Y-92975000D01*
X157000000Y-83575000D02*
X158280000Y-85075000D01*
D14*
X157360000Y-94475000D02*
X157359999Y-94475000D01*
X157359999Y-94475000D01*
X157359999Y-94475000D01*
X157359999Y-94475000D01*
X157359999Y-94475000D01*
X157359999Y-94475000D01*
X157359999Y-94475000D01*
X157359999Y-94474999D01*
X157359999Y-94474999D01*
X157359999Y-94474999D01*
X157359999Y-94474999D01*
X157359999Y-94474999D01*
X157360000Y-94474999D01*
X157360000Y-94474999D01*
X157360000Y-94474999D01*
X157360000Y-94474999D01*
X157360000Y-94474999D01*
X157360000Y-94474999D01*
X157360000Y-94474999D01*
X157360000Y-94474999D01*
X157360000Y-94474999D01*
X157360000Y-94474999D01*
X157360000Y-94474999D01*
X157360000Y-94474999D01*
X157360001Y-94474999D01*
X157360001Y-94474999D01*
X157360001Y-94474999D01*
X157360001Y-94474999D01*
X157360001Y-94474999D01*
X157360001Y-94474999D01*
X157360001Y-94475000D01*
X157360001Y-94475000D01*
X157360001Y-94475000D01*
X157360001Y-94475000D01*
X157360001Y-94475000D01*
X157360001Y-94475000D01*
X157360001Y-94475000D01*
X157360000Y-94475000D01*
X157360000Y-94475000D02*
X157360001Y-94475000D01*
X157360001Y-94475000D01*
X157360001Y-94475000D01*
X157360001Y-94475000D01*
X157360001Y-94475000D01*
X157360001Y-94475000D01*
X157360001Y-94475001D01*
X157360001Y-94475001D01*
X157360001Y-94475001D01*
X157360001Y-94475001D01*
X157360001Y-94475001D01*
X157360001Y-94475001D01*
X157360001Y-94475001D01*
X157360000Y-94475001D01*
X157360000Y-94475001D01*
X157360000Y-94475001D01*
X157360000Y-94475001D01*
X157360000Y-94475001D01*
X157360000Y-94475001D01*
X157360000Y-94475001D01*
X157360000Y-94475001D01*
X157360000Y-94475001D01*
X157360000Y-94475001D01*
X157360000Y-94475001D01*
X157360000Y-94475001D01*
X157359999Y-94475001D01*
X157359999Y-94475001D01*
X157359999Y-94475001D01*
X157359999Y-94475001D01*
X157359999Y-94475001D01*
X157359999Y-94475001D01*
X157359999Y-94475000D01*
X157359999Y-94475000D01*
X157359999Y-94475000D01*
X157359999Y-94475000D01*
X157359999Y-94475000D01*
X157359999Y-94475000D01*
X157360000Y-94475000D01*
D12*
X157360000Y-94475000D02*
X159060000Y-92975000D01*
X157440000Y-83175000D02*
X158740000Y-84675000D01*
X157940000Y-76775000D02*
X151940000Y-76775000D01*
X158280000Y-85075000D02*
X156560000Y-86575000D01*
X158300000Y-77175000D02*
X157440000Y-83175000D01*
X158360000Y-73775000D02*
X159660000Y-75275000D01*
X158620000Y-85475000D02*
X156920000Y-86975000D01*
D14*
X158740000Y-84675000D02*
X158739999Y-84675000D01*
X158739999Y-84675000D01*
X158739999Y-84675000D01*
X158739999Y-84675000D01*
X158739999Y-84675000D01*
X158739999Y-84675000D01*
X158739999Y-84675000D01*
X158739999Y-84674999D01*
X158739999Y-84674999D01*
X158739999Y-84674999D01*
X158739999Y-84674999D01*
X158739999Y-84674999D01*
X158740000Y-84674999D01*
X158740000Y-84674999D01*
X158740000Y-84674999D01*
X158740000Y-84674999D01*
X158740000Y-84674999D01*
X158740000Y-84674999D01*
X158740000Y-84674999D01*
X158740000Y-84674999D01*
X158740000Y-84674999D01*
X158740000Y-84674999D01*
X158740000Y-84674999D01*
X158740000Y-84674999D01*
X158740001Y-84674999D01*
X158740001Y-84674999D01*
X158740001Y-84674999D01*
X158740001Y-84674999D01*
X158740001Y-84674999D01*
X158740001Y-84674999D01*
X158740001Y-84675000D01*
X158740001Y-84675000D01*
X158740001Y-84675000D01*
X158740001Y-84675000D01*
X158740001Y-84675000D01*
X158740001Y-84675000D01*
X158740001Y-84675000D01*
X158740000Y-84675000D01*
X158740000Y-84675000D02*
X158740001Y-84675000D01*
X158740001Y-84675000D01*
X158740001Y-84675000D01*
X158740001Y-84675000D01*
X158740001Y-84675000D01*
X158740001Y-84675000D01*
X158740001Y-84675001D01*
X158740001Y-84675001D01*
X158740001Y-84675001D01*
X158740001Y-84675001D01*
X158740001Y-84675001D01*
X158740001Y-84675001D01*
X158740001Y-84675001D01*
X158740000Y-84675001D01*
X158740000Y-84675001D01*
X158740000Y-84675001D01*
X158740000Y-84675001D01*
X158740000Y-84675001D01*
X158740000Y-84675001D01*
X158740000Y-84675001D01*
X158740000Y-84675001D01*
X158740000Y-84675001D01*
X158740000Y-84675001D01*
X158740000Y-84675001D01*
X158740000Y-84675001D01*
X158739999Y-84675001D01*
X158739999Y-84675001D01*
X158739999Y-84675001D01*
X158739999Y-84675001D01*
X158739999Y-84675001D01*
X158739999Y-84675001D01*
X158739999Y-84675000D01*
X158739999Y-84675000D01*
X158739999Y-84675000D01*
X158739999Y-84675000D01*
X158739999Y-84675000D01*
X158739999Y-84675000D01*
X158740000Y-84675000D01*
D12*
X158740000Y-84675000D02*
X160440000Y-83175000D01*
X159060000Y-92975000D02*
X159920000Y-86975000D01*
X159660000Y-75275000D02*
X157940000Y-76775000D01*
X159920000Y-86975000D02*
X158620000Y-85475000D01*
X160000000Y-75675000D02*
X158300000Y-77175000D01*
X160440000Y-83175000D02*
X161300000Y-77175000D01*
X161300000Y-77175000D02*
X160000000Y-75675000D01*
X177940000Y-49025000D02*
X177940000Y-118965000D01*
X177940000Y-118965000D02*
X129895000Y-118965000D01*
X161480000Y-94875000D02*
G75*
G02*
X158880000Y-94875000I-1300000J0D01*
G01*
X158880000Y-94875000D02*
G75*
G02*
X161480000Y-94875000I1300000J0D01*
G01*
%TO.C,D4*%
X247210000Y-109610000D02*
X247210000Y-112910000D01*
X247210000Y-109610000D02*
X252720000Y-109610000D01*
X247210000Y-112910000D02*
X252720000Y-112910000D01*
%TO.C,D9*%
X259783770Y-81214094D02*
X263668770Y-81214094D01*
X263668770Y-78944094D02*
X259783770Y-78944094D01*
X263668770Y-81214094D02*
X263668770Y-78944094D01*
%TO.C,R75*%
X237657500Y-97967258D02*
X237657500Y-97492742D01*
X238702500Y-97967258D02*
X238702500Y-97492742D01*
%TO.C,R65*%
X335800436Y-126445000D02*
X336254564Y-126445000D01*
X335800436Y-127915000D02*
X336254564Y-127915000D01*
%TO.C,AFF1*%
X298200000Y-101460000D02*
X298200000Y-68360000D01*
X299340000Y-102590000D02*
X322430000Y-102584976D01*
D13*
X300258274Y-96484147D02*
X315972070Y-96484147D01*
X302503103Y-85260000D02*
X300258274Y-96484147D01*
X304747930Y-74035853D02*
X302503103Y-85260000D01*
X304747930Y-74035853D02*
X320461726Y-74035853D01*
X315972070Y-96484147D02*
X318216897Y-85260000D01*
X318216897Y-85260000D02*
X302503103Y-85260000D01*
X320461726Y-74035853D02*
X318216897Y-85260000D01*
D12*
X322430000Y-68360000D02*
X298200000Y-68360000D01*
X322430000Y-102584976D02*
X322430000Y-68360000D01*
X321665965Y-97950000D02*
G75*
G02*
X318374035Y-97950000I-1645965J0D01*
G01*
X318374035Y-97950000D02*
G75*
G02*
X321665965Y-97950000I1645965J0D01*
G01*
%TO.C,D11*%
X259783770Y-91214094D02*
X263668770Y-91214094D01*
X263668770Y-88944094D02*
X259783770Y-88944094D01*
X263668770Y-91214094D02*
X263668770Y-88944094D01*
%TO.C,JP3*%
X324600000Y-125000000D02*
X324600000Y-124400000D01*
X325300000Y-123700000D02*
X326700000Y-123700000D01*
X326700000Y-125700000D02*
X325300000Y-125700000D01*
X327400000Y-124400000D02*
X327400000Y-125000000D01*
X324600000Y-124400000D02*
G75*
G02*
X325300000Y-123700000I699999J1D01*
G01*
X325300000Y-125700000D02*
G75*
G02*
X324600000Y-125000000I-1J699999D01*
G01*
X326700000Y-123700000D02*
G75*
G02*
X327400000Y-124400000I0J-700000D01*
G01*
X327400000Y-125000000D02*
G75*
G02*
X326700000Y-125700000I-700000J0D01*
G01*
%TO.C,R73*%
X258765000Y-115107258D02*
X258765000Y-114632742D01*
X259810000Y-115107258D02*
X259810000Y-114632742D01*
%TO.C,R77*%
X232657500Y-97967258D02*
X232657500Y-97492742D01*
X233702500Y-97967258D02*
X233702500Y-97492742D01*
%TO.C,R76*%
X236607500Y-90882258D02*
X236607500Y-90407742D01*
X237652500Y-90882258D02*
X237652500Y-90407742D01*
%TO.C,R78*%
X234157500Y-97967258D02*
X234157500Y-97492742D01*
X235202500Y-97967258D02*
X235202500Y-97492742D01*
%TO.C,R63*%
X232885000Y-65067064D02*
X232885000Y-64612936D01*
X234355000Y-65067064D02*
X234355000Y-64612936D01*
%TO.C,D7*%
X254783770Y-76214094D02*
X258668770Y-76214094D01*
X258668770Y-73944094D02*
X254783770Y-73944094D01*
X258668770Y-76214094D02*
X258668770Y-73944094D01*
%TO.C,R100*%
X246123314Y-101945000D02*
X245669186Y-101945000D01*
X246123314Y-103415000D02*
X245669186Y-103415000D01*
%TO.C,R103*%
X251551492Y-85017500D02*
X252026008Y-85017500D01*
X251551492Y-86062500D02*
X252026008Y-86062500D01*
%TO.C,U15*%
X274385000Y-49025000D02*
X322430000Y-49025000D01*
X274385000Y-118965000D02*
X274385000Y-49025000D01*
X290750000Y-92975000D02*
X292050000Y-94475000D01*
X291610000Y-86975000D02*
X290750000Y-92975000D01*
D14*
X292050000Y-94475000D02*
X292049999Y-94475000D01*
X292049999Y-94475000D01*
X292049999Y-94475000D01*
X292049999Y-94475000D01*
X292049999Y-94475000D01*
X292049999Y-94475000D01*
X292049999Y-94475000D01*
X292049999Y-94474999D01*
X292049999Y-94474999D01*
X292049999Y-94474999D01*
X292049999Y-94474999D01*
X292049999Y-94474999D01*
X292050000Y-94474999D01*
X292050000Y-94474999D01*
X292050000Y-94474999D01*
X292050000Y-94474999D01*
X292050000Y-94474999D01*
X292050000Y-94474999D01*
X292050000Y-94474999D01*
X292050000Y-94474999D01*
X292050000Y-94474999D01*
X292050000Y-94474999D01*
X292050000Y-94474999D01*
X292050000Y-94474999D01*
X292050001Y-94474999D01*
X292050001Y-94474999D01*
X292050001Y-94474999D01*
X292050001Y-94474999D01*
X292050001Y-94474999D01*
X292050001Y-94474999D01*
X292050001Y-94475000D01*
X292050001Y-94475000D01*
X292050001Y-94475000D01*
X292050001Y-94475000D01*
X292050001Y-94475000D01*
X292050001Y-94475000D01*
X292050001Y-94475000D01*
X292050000Y-94475000D01*
X292050000Y-94475000D02*
X292050001Y-94475000D01*
X292050001Y-94475000D01*
X292050001Y-94475000D01*
X292050001Y-94475000D01*
X292050001Y-94475000D01*
X292050001Y-94475000D01*
X292050001Y-94475001D01*
X292050001Y-94475001D01*
X292050001Y-94475001D01*
X292050001Y-94475001D01*
X292050001Y-94475001D01*
X292050001Y-94475001D01*
X292050001Y-94475001D01*
X292050000Y-94475001D01*
X292050000Y-94475001D01*
X292050000Y-94475001D01*
X292050000Y-94475001D01*
X292050000Y-94475001D01*
X292050000Y-94475001D01*
X292050000Y-94475001D01*
X292050000Y-94475001D01*
X292050000Y-94475001D01*
X292050000Y-94475001D01*
X292050000Y-94475001D01*
X292050000Y-94475001D01*
X292049999Y-94475001D01*
X292049999Y-94475001D01*
X292049999Y-94475001D01*
X292049999Y-94475001D01*
X292049999Y-94475001D01*
X292049999Y-94475001D01*
X292049999Y-94475000D01*
X292049999Y-94475000D01*
X292049999Y-94475000D01*
X292049999Y-94475000D01*
X292049999Y-94475000D01*
X292049999Y-94475000D01*
X292050000Y-94475000D01*
D12*
X292050000Y-94475000D02*
X293750000Y-92975000D01*
X292130000Y-83175000D02*
X293430000Y-84675000D01*
X292345000Y-118405000D02*
X294345000Y-118405000D01*
D14*
X292390000Y-94875000D02*
X292389999Y-94875000D01*
X292389999Y-94875000D01*
X292389999Y-94875000D01*
X292389999Y-94875000D01*
X292389999Y-94875000D01*
X292389999Y-94875000D01*
X292389999Y-94875000D01*
X292389999Y-94874999D01*
X292389999Y-94874999D01*
X292389999Y-94874999D01*
X292389999Y-94874999D01*
X292389999Y-94874999D01*
X292390000Y-94874999D01*
X292390000Y-94874999D01*
X292390000Y-94874999D01*
X292390000Y-94874999D01*
X292390000Y-94874999D01*
X292390000Y-94874999D01*
X292390000Y-94874999D01*
X292390000Y-94874999D01*
X292390000Y-94874999D01*
X292390000Y-94874999D01*
X292390000Y-94874999D01*
X292390000Y-94874999D01*
X292390001Y-94874999D01*
X292390001Y-94874999D01*
X292390001Y-94874999D01*
X292390001Y-94874999D01*
X292390001Y-94874999D01*
X292390001Y-94874999D01*
X292390001Y-94875000D01*
X292390001Y-94875000D01*
X292390001Y-94875000D01*
X292390001Y-94875000D01*
X292390001Y-94875000D01*
X292390001Y-94875000D01*
X292390001Y-94875000D01*
X292390000Y-94875000D01*
X292390000Y-94875000D02*
X292390001Y-94875000D01*
X292390001Y-94875000D01*
X292390001Y-94875000D01*
X292390001Y-94875000D01*
X292390001Y-94875000D01*
X292390001Y-94875000D01*
X292390001Y-94875001D01*
X292390001Y-94875001D01*
X292390001Y-94875001D01*
X292390001Y-94875001D01*
X292390001Y-94875001D01*
X292390001Y-94875001D01*
X292390001Y-94875001D01*
X292390000Y-94875001D01*
X292390000Y-94875001D01*
X292390000Y-94875001D01*
X292390000Y-94875001D01*
X292390000Y-94875001D01*
X292390000Y-94875001D01*
X292390000Y-94875001D01*
X292390000Y-94875001D01*
X292390000Y-94875001D01*
X292390000Y-94875001D01*
X292390000Y-94875001D01*
X292390000Y-94875001D01*
X292389999Y-94875001D01*
X292389999Y-94875001D01*
X292389999Y-94875001D01*
X292389999Y-94875001D01*
X292389999Y-94875001D01*
X292389999Y-94875001D01*
X292389999Y-94875000D01*
X292389999Y-94875000D01*
X292389999Y-94875000D01*
X292389999Y-94875000D01*
X292389999Y-94875000D01*
X292389999Y-94875000D01*
X292390000Y-94875000D01*
D12*
X292390000Y-94875000D02*
X294110000Y-93375000D01*
X292990000Y-77175000D02*
X292130000Y-83175000D01*
X293310000Y-85475000D02*
X291610000Y-86975000D01*
D14*
X293430000Y-84675000D02*
X293429999Y-84675000D01*
X293429999Y-84675000D01*
X293429999Y-84675000D01*
X293429999Y-84675000D01*
X293429999Y-84675000D01*
X293429999Y-84675000D01*
X293429999Y-84675000D01*
X293429999Y-84674999D01*
X293429999Y-84674999D01*
X293429999Y-84674999D01*
X293429999Y-84674999D01*
X293429999Y-84674999D01*
X293430000Y-84674999D01*
X293430000Y-84674999D01*
X293430000Y-84674999D01*
X293430000Y-84674999D01*
X293430000Y-84674999D01*
X293430000Y-84674999D01*
X293430000Y-84674999D01*
X293430000Y-84674999D01*
X293430000Y-84674999D01*
X293430000Y-84674999D01*
X293430000Y-84674999D01*
X293430000Y-84674999D01*
X293430001Y-84674999D01*
X293430001Y-84674999D01*
X293430001Y-84674999D01*
X293430001Y-84674999D01*
X293430001Y-84674999D01*
X293430001Y-84674999D01*
X293430001Y-84675000D01*
X293430001Y-84675000D01*
X293430001Y-84675000D01*
X293430001Y-84675000D01*
X293430001Y-84675000D01*
X293430001Y-84675000D01*
X293430001Y-84675000D01*
X293430000Y-84675000D01*
X293430000Y-84675000D02*
X293430001Y-84675000D01*
X293430001Y-84675000D01*
X293430001Y-84675000D01*
X293430001Y-84675000D01*
X293430001Y-84675000D01*
X293430001Y-84675000D01*
X293430001Y-84675001D01*
X293430001Y-84675001D01*
X293430001Y-84675001D01*
X293430001Y-84675001D01*
X293430001Y-84675001D01*
X293430001Y-84675001D01*
X293430001Y-84675001D01*
X293430000Y-84675001D01*
X293430000Y-84675001D01*
X293430000Y-84675001D01*
X293430000Y-84675001D01*
X293430000Y-84675001D01*
X293430000Y-84675001D01*
X293430000Y-84675001D01*
X293430000Y-84675001D01*
X293430000Y-84675001D01*
X293430000Y-84675001D01*
X293430000Y-84675001D01*
X293430000Y-84675001D01*
X293429999Y-84675001D01*
X293429999Y-84675001D01*
X293429999Y-84675001D01*
X293429999Y-84675001D01*
X293429999Y-84675001D01*
X293429999Y-84675001D01*
X293429999Y-84675000D01*
X293429999Y-84675000D01*
X293429999Y-84675000D01*
X293429999Y-84675000D01*
X293429999Y-84675000D01*
X293429999Y-84675000D01*
X293430000Y-84675000D01*
D12*
X293430000Y-84675000D02*
X295130000Y-83175000D01*
X293690000Y-96375000D02*
X292390000Y-94875000D01*
X293750000Y-92975000D02*
X294610000Y-86975000D01*
D14*
X293770000Y-85075000D02*
X293769999Y-85075000D01*
X293769999Y-85075000D01*
X293769999Y-85075000D01*
X293769999Y-85075000D01*
X293769999Y-85075000D01*
X293769999Y-85075000D01*
X293769999Y-85075000D01*
X293769999Y-85074999D01*
X293769999Y-85074999D01*
X293769999Y-85074999D01*
X293769999Y-85074999D01*
X293769999Y-85074999D01*
X293770000Y-85074999D01*
X293770000Y-85074999D01*
X293770000Y-85074999D01*
X293770000Y-85074999D01*
X293770000Y-85074999D01*
X293770000Y-85074999D01*
X293770000Y-85074999D01*
X293770000Y-85074999D01*
X293770000Y-85074999D01*
X293770000Y-85074999D01*
X293770000Y-85074999D01*
X293770000Y-85074999D01*
X293770001Y-85074999D01*
X293770001Y-85074999D01*
X293770001Y-85074999D01*
X293770001Y-85074999D01*
X293770001Y-85074999D01*
X293770001Y-85074999D01*
X293770001Y-85075000D01*
X293770001Y-85075000D01*
X293770001Y-85075000D01*
X293770001Y-85075000D01*
X293770001Y-85075000D01*
X293770001Y-85075000D01*
X293770001Y-85075000D01*
X293770000Y-85075000D01*
X293770000Y-85075000D02*
X293770001Y-85075000D01*
X293770001Y-85075000D01*
X293770001Y-85075000D01*
X293770001Y-85075000D01*
X293770001Y-85075000D01*
X293770001Y-85075000D01*
X293770001Y-85075001D01*
X293770001Y-85075001D01*
X293770001Y-85075001D01*
X293770001Y-85075001D01*
X293770001Y-85075001D01*
X293770001Y-85075001D01*
X293770001Y-85075001D01*
X293770000Y-85075001D01*
X293770000Y-85075001D01*
X293770000Y-85075001D01*
X293770000Y-85075001D01*
X293770000Y-85075001D01*
X293770000Y-85075001D01*
X293770000Y-85075001D01*
X293770000Y-85075001D01*
X293770000Y-85075001D01*
X293770000Y-85075001D01*
X293770000Y-85075001D01*
X293770000Y-85075001D01*
X293769999Y-85075001D01*
X293769999Y-85075001D01*
X293769999Y-85075001D01*
X293769999Y-85075001D01*
X293769999Y-85075001D01*
X293769999Y-85075001D01*
X293769999Y-85075000D01*
X293769999Y-85075000D01*
X293769999Y-85075000D01*
X293769999Y-85075000D01*
X293769999Y-85075000D01*
X293769999Y-85075000D01*
X293770000Y-85075000D01*
D12*
X293770000Y-85075000D02*
X295490000Y-83575000D01*
X294110000Y-93375000D02*
X300110000Y-93375000D01*
X294610000Y-86975000D02*
X293310000Y-85475000D01*
X294690000Y-75675000D02*
X292990000Y-77175000D01*
X295050000Y-86575000D02*
X293770000Y-85075000D01*
X295130000Y-83175000D02*
X295990000Y-77175000D01*
D14*
X295150000Y-75275000D02*
X295149999Y-75275000D01*
X295149999Y-75275000D01*
X295149999Y-75275000D01*
X295149999Y-75275000D01*
X295149999Y-75275000D01*
X295149999Y-75275000D01*
X295149999Y-75275000D01*
X295149999Y-75274999D01*
X295149999Y-75274999D01*
X295149999Y-75274999D01*
X295149999Y-75274999D01*
X295149999Y-75274999D01*
X295150000Y-75274999D01*
X295150000Y-75274999D01*
X295150000Y-75274999D01*
X295150000Y-75274999D01*
X295150000Y-75274999D01*
X295150000Y-75274999D01*
X295150000Y-75274999D01*
X295150000Y-75274999D01*
X295150000Y-75274999D01*
X295150000Y-75274999D01*
X295150000Y-75274999D01*
X295150000Y-75274999D01*
X295150001Y-75274999D01*
X295150001Y-75274999D01*
X295150001Y-75274999D01*
X295150001Y-75274999D01*
X295150001Y-75274999D01*
X295150001Y-75274999D01*
X295150001Y-75275000D01*
X295150001Y-75275000D01*
X295150001Y-75275000D01*
X295150001Y-75275000D01*
X295150001Y-75275000D01*
X295150001Y-75275000D01*
X295150001Y-75275000D01*
X295150000Y-75275000D01*
X295150000Y-75275000D02*
X295150001Y-75275000D01*
X295150001Y-75275000D01*
X295150001Y-75275000D01*
X295150001Y-75275000D01*
X295150001Y-75275000D01*
X295150001Y-75275000D01*
X295150001Y-75275001D01*
X295150001Y-75275001D01*
X295150001Y-75275001D01*
X295150001Y-75275001D01*
X295150001Y-75275001D01*
X295150001Y-75275001D01*
X295150001Y-75275001D01*
X295150000Y-75275001D01*
X295150000Y-75275001D01*
X295150000Y-75275001D01*
X295150000Y-75275001D01*
X295150000Y-75275001D01*
X295150000Y-75275001D01*
X295150000Y-75275001D01*
X295150000Y-75275001D01*
X295150000Y-75275001D01*
X295150000Y-75275001D01*
X295150000Y-75275001D01*
X295150000Y-75275001D01*
X295149999Y-75275001D01*
X295149999Y-75275001D01*
X295149999Y-75275001D01*
X295149999Y-75275001D01*
X295149999Y-75275001D01*
X295149999Y-75275001D01*
X295149999Y-75275000D01*
X295149999Y-75275000D01*
X295149999Y-75275000D01*
X295149999Y-75275000D01*
X295149999Y-75275000D01*
X295149999Y-75275000D01*
X295150000Y-75275000D01*
D12*
X295150000Y-75275000D02*
X296850000Y-73775000D01*
X295490000Y-83575000D02*
X301490000Y-83575000D01*
X295990000Y-77175000D02*
X294690000Y-75675000D01*
X296430000Y-76775000D02*
X295150000Y-75275000D01*
X296850000Y-73775000D02*
X302850000Y-73775000D01*
X299690000Y-96375000D02*
X293690000Y-96375000D01*
X300110000Y-93375000D02*
X301390000Y-94875000D01*
X300550000Y-92975000D02*
X301850000Y-94475000D01*
X301050000Y-86575000D02*
X295050000Y-86575000D01*
X301390000Y-94875000D02*
X299690000Y-96375000D01*
X301410000Y-86975000D02*
X300550000Y-92975000D01*
X301490000Y-83575000D02*
X302770000Y-85075000D01*
D14*
X301850000Y-94475000D02*
X301849999Y-94475000D01*
X301849999Y-94475000D01*
X301849999Y-94475000D01*
X301849999Y-94475000D01*
X301849999Y-94475000D01*
X301849999Y-94475000D01*
X301849999Y-94475000D01*
X301849999Y-94474999D01*
X301849999Y-94474999D01*
X301849999Y-94474999D01*
X301849999Y-94474999D01*
X301849999Y-94474999D01*
X301850000Y-94474999D01*
X301850000Y-94474999D01*
X301850000Y-94474999D01*
X301850000Y-94474999D01*
X301850000Y-94474999D01*
X301850000Y-94474999D01*
X301850000Y-94474999D01*
X301850000Y-94474999D01*
X301850000Y-94474999D01*
X301850000Y-94474999D01*
X301850000Y-94474999D01*
X301850000Y-94474999D01*
X301850001Y-94474999D01*
X301850001Y-94474999D01*
X301850001Y-94474999D01*
X301850001Y-94474999D01*
X301850001Y-94474999D01*
X301850001Y-94474999D01*
X301850001Y-94475000D01*
X301850001Y-94475000D01*
X301850001Y-94475000D01*
X301850001Y-94475000D01*
X301850001Y-94475000D01*
X301850001Y-94475000D01*
X301850001Y-94475000D01*
X301850000Y-94475000D01*
X301850000Y-94475000D02*
X301850001Y-94475000D01*
X301850001Y-94475000D01*
X301850001Y-94475000D01*
X301850001Y-94475000D01*
X301850001Y-94475000D01*
X301850001Y-94475000D01*
X301850001Y-94475001D01*
X301850001Y-94475001D01*
X301850001Y-94475001D01*
X301850001Y-94475001D01*
X301850001Y-94475001D01*
X301850001Y-94475001D01*
X301850001Y-94475001D01*
X301850000Y-94475001D01*
X301850000Y-94475001D01*
X301850000Y-94475001D01*
X301850000Y-94475001D01*
X301850000Y-94475001D01*
X301850000Y-94475001D01*
X301850000Y-94475001D01*
X301850000Y-94475001D01*
X301850000Y-94475001D01*
X301850000Y-94475001D01*
X301850000Y-94475001D01*
X301850000Y-94475001D01*
X301849999Y-94475001D01*
X301849999Y-94475001D01*
X301849999Y-94475001D01*
X301849999Y-94475001D01*
X301849999Y-94475001D01*
X301849999Y-94475001D01*
X301849999Y-94475000D01*
X301849999Y-94475000D01*
X301849999Y-94475000D01*
X301849999Y-94475000D01*
X301849999Y-94475000D01*
X301849999Y-94475000D01*
X301850000Y-94475000D01*
D12*
X301850000Y-94475000D02*
X303550000Y-92975000D01*
X301930000Y-83175000D02*
X303230000Y-84675000D01*
X302430000Y-76775000D02*
X296430000Y-76775000D01*
X302770000Y-85075000D02*
X301050000Y-86575000D01*
X302790000Y-77175000D02*
X301930000Y-83175000D01*
X302850000Y-73775000D02*
X304150000Y-75275000D01*
X303110000Y-85475000D02*
X301410000Y-86975000D01*
D14*
X303230000Y-84675000D02*
X303229999Y-84675000D01*
X303229999Y-84675000D01*
X303229999Y-84675000D01*
X303229999Y-84675000D01*
X303229999Y-84675000D01*
X303229999Y-84675000D01*
X303229999Y-84675000D01*
X303229999Y-84674999D01*
X303229999Y-84674999D01*
X303229999Y-84674999D01*
X303229999Y-84674999D01*
X303229999Y-84674999D01*
X303230000Y-84674999D01*
X303230000Y-84674999D01*
X303230000Y-84674999D01*
X303230000Y-84674999D01*
X303230000Y-84674999D01*
X303230000Y-84674999D01*
X303230000Y-84674999D01*
X303230000Y-84674999D01*
X303230000Y-84674999D01*
X303230000Y-84674999D01*
X303230000Y-84674999D01*
X303230000Y-84674999D01*
X303230001Y-84674999D01*
X303230001Y-84674999D01*
X303230001Y-84674999D01*
X303230001Y-84674999D01*
X303230001Y-84674999D01*
X303230001Y-84674999D01*
X303230001Y-84675000D01*
X303230001Y-84675000D01*
X303230001Y-84675000D01*
X303230001Y-84675000D01*
X303230001Y-84675000D01*
X303230001Y-84675000D01*
X303230001Y-84675000D01*
X303230000Y-84675000D01*
X303230000Y-84675000D02*
X303230001Y-84675000D01*
X303230001Y-84675000D01*
X303230001Y-84675000D01*
X303230001Y-84675000D01*
X303230001Y-84675000D01*
X303230001Y-84675000D01*
X303230001Y-84675001D01*
X303230001Y-84675001D01*
X303230001Y-84675001D01*
X303230001Y-84675001D01*
X303230001Y-84675001D01*
X303230001Y-84675001D01*
X303230001Y-84675001D01*
X303230000Y-84675001D01*
X303230000Y-84675001D01*
X303230000Y-84675001D01*
X303230000Y-84675001D01*
X303230000Y-84675001D01*
X303230000Y-84675001D01*
X303230000Y-84675001D01*
X303230000Y-84675001D01*
X303230000Y-84675001D01*
X303230000Y-84675001D01*
X303230000Y-84675001D01*
X303230000Y-84675001D01*
X303229999Y-84675001D01*
X303229999Y-84675001D01*
X303229999Y-84675001D01*
X303229999Y-84675001D01*
X303229999Y-84675001D01*
X303229999Y-84675001D01*
X303229999Y-84675000D01*
X303229999Y-84675000D01*
X303229999Y-84675000D01*
X303229999Y-84675000D01*
X303229999Y-84675000D01*
X303229999Y-84675000D01*
X303230000Y-84675000D01*
D12*
X303230000Y-84675000D02*
X304930000Y-83175000D01*
X303550000Y-92975000D02*
X304410000Y-86975000D01*
X304150000Y-75275000D02*
X302430000Y-76775000D01*
X304410000Y-86975000D02*
X303110000Y-85475000D01*
X304490000Y-75675000D02*
X302790000Y-77175000D01*
X304930000Y-83175000D02*
X305790000Y-77175000D01*
X305790000Y-77175000D02*
X304490000Y-75675000D01*
X322430000Y-49025000D02*
X322430000Y-118965000D01*
X322430000Y-118965000D02*
X274385000Y-118965000D01*
X305970000Y-94875000D02*
G75*
G02*
X303370000Y-94875000I-1300000J0D01*
G01*
X303370000Y-94875000D02*
G75*
G02*
X305970000Y-94875000I1300000J0D01*
G01*
%TO.C,D10*%
X264783770Y-86214094D02*
X268668770Y-86214094D01*
X268668770Y-83944094D02*
X264783770Y-83944094D01*
X268668770Y-86214094D02*
X268668770Y-83944094D01*
%TO.C,R72*%
X257265000Y-114632742D02*
X257265000Y-115107258D01*
X258310000Y-114632742D02*
X258310000Y-115107258D01*
%TO.C,Q4*%
X229120000Y-93422500D02*
X230120000Y-93422500D01*
X229120000Y-94942500D02*
X229120000Y-93422500D01*
X229170000Y-94942500D02*
X229120000Y-94942500D01*
X231070000Y-94942500D02*
X230290000Y-94942500D01*
X231240000Y-93422500D02*
X232240000Y-93422500D01*
X232240000Y-93422500D02*
X232240000Y-94942500D01*
X232240000Y-94942500D02*
X232190000Y-94942500D01*
X230630000Y-95722500D02*
X230300000Y-95482500D01*
X230630000Y-95242500D01*
X230630000Y-95722500D01*
G36*
X230630000Y-95722500D02*
G01*
X230300000Y-95482500D01*
X230630000Y-95242500D01*
X230630000Y-95722500D01*
G37*
%TO.C,R64*%
X236914564Y-65015000D02*
X236460436Y-65015000D01*
X236914564Y-66485000D02*
X236460436Y-66485000D01*
%TO.C,R101*%
X246120814Y-67165000D02*
X245666686Y-67165000D01*
X246120814Y-68635000D02*
X245666686Y-68635000D01*
%TO.C,R62*%
X230935000Y-65067064D02*
X230935000Y-64612936D01*
X232405000Y-65067064D02*
X232405000Y-64612936D01*
%TO.C,U10*%
X33255000Y-49025000D02*
X81300000Y-49025000D01*
X33255000Y-118965000D02*
X33255000Y-49025000D01*
X49620000Y-92975000D02*
X50920000Y-94475000D01*
X50480000Y-86975000D02*
X49620000Y-92975000D01*
D14*
X50920000Y-94475000D02*
X50919999Y-94475000D01*
X50919999Y-94475000D01*
X50919999Y-94475000D01*
X50919999Y-94475000D01*
X50919999Y-94475000D01*
X50919999Y-94475000D01*
X50919999Y-94475000D01*
X50919999Y-94474999D01*
X50919999Y-94474999D01*
X50919999Y-94474999D01*
X50919999Y-94474999D01*
X50919999Y-94474999D01*
X50920000Y-94474999D01*
X50920000Y-94474999D01*
X50920000Y-94474999D01*
X50920000Y-94474999D01*
X50920000Y-94474999D01*
X50920000Y-94474999D01*
X50920000Y-94474999D01*
X50920000Y-94474999D01*
X50920000Y-94474999D01*
X50920000Y-94474999D01*
X50920000Y-94474999D01*
X50920000Y-94474999D01*
X50920001Y-94474999D01*
X50920001Y-94474999D01*
X50920001Y-94474999D01*
X50920001Y-94474999D01*
X50920001Y-94474999D01*
X50920001Y-94474999D01*
X50920001Y-94475000D01*
X50920001Y-94475000D01*
X50920001Y-94475000D01*
X50920001Y-94475000D01*
X50920001Y-94475000D01*
X50920001Y-94475000D01*
X50920001Y-94475000D01*
X50920000Y-94475000D01*
X50920000Y-94475000D02*
X50920001Y-94475000D01*
X50920001Y-94475000D01*
X50920001Y-94475000D01*
X50920001Y-94475000D01*
X50920001Y-94475000D01*
X50920001Y-94475000D01*
X50920001Y-94475001D01*
X50920001Y-94475001D01*
X50920001Y-94475001D01*
X50920001Y-94475001D01*
X50920001Y-94475001D01*
X50920001Y-94475001D01*
X50920001Y-94475001D01*
X50920000Y-94475001D01*
X50920000Y-94475001D01*
X50920000Y-94475001D01*
X50920000Y-94475001D01*
X50920000Y-94475001D01*
X50920000Y-94475001D01*
X50920000Y-94475001D01*
X50920000Y-94475001D01*
X50920000Y-94475001D01*
X50920000Y-94475001D01*
X50920000Y-94475001D01*
X50920000Y-94475001D01*
X50919999Y-94475001D01*
X50919999Y-94475001D01*
X50919999Y-94475001D01*
X50919999Y-94475001D01*
X50919999Y-94475001D01*
X50919999Y-94475001D01*
X50919999Y-94475000D01*
X50919999Y-94475000D01*
X50919999Y-94475000D01*
X50919999Y-94475000D01*
X50919999Y-94475000D01*
X50919999Y-94475000D01*
X50920000Y-94475000D01*
D12*
X50920000Y-94475000D02*
X52620000Y-92975000D01*
X51000000Y-83175000D02*
X52300000Y-84675000D01*
X51215000Y-118405000D02*
X53215000Y-118405000D01*
D14*
X51260000Y-94875000D02*
X51259999Y-94875000D01*
X51259999Y-94875000D01*
X51259999Y-94875000D01*
X51259999Y-94875000D01*
X51259999Y-94875000D01*
X51259999Y-94875000D01*
X51259999Y-94875000D01*
X51259999Y-94874999D01*
X51259999Y-94874999D01*
X51259999Y-94874999D01*
X51259999Y-94874999D01*
X51259999Y-94874999D01*
X51260000Y-94874999D01*
X51260000Y-94874999D01*
X51260000Y-94874999D01*
X51260000Y-94874999D01*
X51260000Y-94874999D01*
X51260000Y-94874999D01*
X51260000Y-94874999D01*
X51260000Y-94874999D01*
X51260000Y-94874999D01*
X51260000Y-94874999D01*
X51260000Y-94874999D01*
X51260000Y-94874999D01*
X51260001Y-94874999D01*
X51260001Y-94874999D01*
X51260001Y-94874999D01*
X51260001Y-94874999D01*
X51260001Y-94874999D01*
X51260001Y-94874999D01*
X51260001Y-94875000D01*
X51260001Y-94875000D01*
X51260001Y-94875000D01*
X51260001Y-94875000D01*
X51260001Y-94875000D01*
X51260001Y-94875000D01*
X51260001Y-94875000D01*
X51260000Y-94875000D01*
X51260000Y-94875000D02*
X51260001Y-94875000D01*
X51260001Y-94875000D01*
X51260001Y-94875000D01*
X51260001Y-94875000D01*
X51260001Y-94875000D01*
X51260001Y-94875000D01*
X51260001Y-94875001D01*
X51260001Y-94875001D01*
X51260001Y-94875001D01*
X51260001Y-94875001D01*
X51260001Y-94875001D01*
X51260001Y-94875001D01*
X51260001Y-94875001D01*
X51260000Y-94875001D01*
X51260000Y-94875001D01*
X51260000Y-94875001D01*
X51260000Y-94875001D01*
X51260000Y-94875001D01*
X51260000Y-94875001D01*
X51260000Y-94875001D01*
X51260000Y-94875001D01*
X51260000Y-94875001D01*
X51260000Y-94875001D01*
X51260000Y-94875001D01*
X51260000Y-94875001D01*
X51259999Y-94875001D01*
X51259999Y-94875001D01*
X51259999Y-94875001D01*
X51259999Y-94875001D01*
X51259999Y-94875001D01*
X51259999Y-94875001D01*
X51259999Y-94875000D01*
X51259999Y-94875000D01*
X51259999Y-94875000D01*
X51259999Y-94875000D01*
X51259999Y-94875000D01*
X51259999Y-94875000D01*
X51260000Y-94875000D01*
D12*
X51260000Y-94875000D02*
X52980000Y-93375000D01*
X51860000Y-77175000D02*
X51000000Y-83175000D01*
X52180000Y-85475000D02*
X50480000Y-86975000D01*
D14*
X52300000Y-84675000D02*
X52299999Y-84675000D01*
X52299999Y-84675000D01*
X52299999Y-84675000D01*
X52299999Y-84675000D01*
X52299999Y-84675000D01*
X52299999Y-84675000D01*
X52299999Y-84675000D01*
X52299999Y-84674999D01*
X52299999Y-84674999D01*
X52299999Y-84674999D01*
X52299999Y-84674999D01*
X52299999Y-84674999D01*
X52300000Y-84674999D01*
X52300000Y-84674999D01*
X52300000Y-84674999D01*
X52300000Y-84674999D01*
X52300000Y-84674999D01*
X52300000Y-84674999D01*
X52300000Y-84674999D01*
X52300000Y-84674999D01*
X52300000Y-84674999D01*
X52300000Y-84674999D01*
X52300000Y-84674999D01*
X52300000Y-84674999D01*
X52300001Y-84674999D01*
X52300001Y-84674999D01*
X52300001Y-84674999D01*
X52300001Y-84674999D01*
X52300001Y-84674999D01*
X52300001Y-84674999D01*
X52300001Y-84675000D01*
X52300001Y-84675000D01*
X52300001Y-84675000D01*
X52300001Y-84675000D01*
X52300001Y-84675000D01*
X52300001Y-84675000D01*
X52300001Y-84675000D01*
X52300000Y-84675000D01*
X52300000Y-84675000D02*
X52300001Y-84675000D01*
X52300001Y-84675000D01*
X52300001Y-84675000D01*
X52300001Y-84675000D01*
X52300001Y-84675000D01*
X52300001Y-84675000D01*
X52300001Y-84675001D01*
X52300001Y-84675001D01*
X52300001Y-84675001D01*
X52300001Y-84675001D01*
X52300001Y-84675001D01*
X52300001Y-84675001D01*
X52300001Y-84675001D01*
X52300000Y-84675001D01*
X52300000Y-84675001D01*
X52300000Y-84675001D01*
X52300000Y-84675001D01*
X52300000Y-84675001D01*
X52300000Y-84675001D01*
X52300000Y-84675001D01*
X52300000Y-84675001D01*
X52300000Y-84675001D01*
X52300000Y-84675001D01*
X52300000Y-84675001D01*
X52300000Y-84675001D01*
X52299999Y-84675001D01*
X52299999Y-84675001D01*
X52299999Y-84675001D01*
X52299999Y-84675001D01*
X52299999Y-84675001D01*
X52299999Y-84675001D01*
X52299999Y-84675000D01*
X52299999Y-84675000D01*
X52299999Y-84675000D01*
X52299999Y-84675000D01*
X52299999Y-84675000D01*
X52299999Y-84675000D01*
X52300000Y-84675000D01*
D12*
X52300000Y-84675000D02*
X54000000Y-83175000D01*
X52560000Y-96375000D02*
X51260000Y-94875000D01*
X52620000Y-92975000D02*
X53480000Y-86975000D01*
D14*
X52640000Y-85075000D02*
X52639999Y-85075000D01*
X52639999Y-85075000D01*
X52639999Y-85075000D01*
X52639999Y-85075000D01*
X52639999Y-85075000D01*
X52639999Y-85075000D01*
X52639999Y-85075000D01*
X52639999Y-85074999D01*
X52639999Y-85074999D01*
X52639999Y-85074999D01*
X52639999Y-85074999D01*
X52639999Y-85074999D01*
X52640000Y-85074999D01*
X52640000Y-85074999D01*
X52640000Y-85074999D01*
X52640000Y-85074999D01*
X52640000Y-85074999D01*
X52640000Y-85074999D01*
X52640000Y-85074999D01*
X52640000Y-85074999D01*
X52640000Y-85074999D01*
X52640000Y-85074999D01*
X52640000Y-85074999D01*
X52640000Y-85074999D01*
X52640001Y-85074999D01*
X52640001Y-85074999D01*
X52640001Y-85074999D01*
X52640001Y-85074999D01*
X52640001Y-85074999D01*
X52640001Y-85074999D01*
X52640001Y-85075000D01*
X52640001Y-85075000D01*
X52640001Y-85075000D01*
X52640001Y-85075000D01*
X52640001Y-85075000D01*
X52640001Y-85075000D01*
X52640001Y-85075000D01*
X52640000Y-85075000D01*
X52640000Y-85075000D02*
X52640001Y-85075000D01*
X52640001Y-85075000D01*
X52640001Y-85075000D01*
X52640001Y-85075000D01*
X52640001Y-85075000D01*
X52640001Y-85075000D01*
X52640001Y-85075001D01*
X52640001Y-85075001D01*
X52640001Y-85075001D01*
X52640001Y-85075001D01*
X52640001Y-85075001D01*
X52640001Y-85075001D01*
X52640001Y-85075001D01*
X52640000Y-85075001D01*
X52640000Y-85075001D01*
X52640000Y-85075001D01*
X52640000Y-85075001D01*
X52640000Y-85075001D01*
X52640000Y-85075001D01*
X52640000Y-85075001D01*
X52640000Y-85075001D01*
X52640000Y-85075001D01*
X52640000Y-85075001D01*
X52640000Y-85075001D01*
X52640000Y-85075001D01*
X52639999Y-85075001D01*
X52639999Y-85075001D01*
X52639999Y-85075001D01*
X52639999Y-85075001D01*
X52639999Y-85075001D01*
X52639999Y-85075001D01*
X52639999Y-85075000D01*
X52639999Y-85075000D01*
X52639999Y-85075000D01*
X52639999Y-85075000D01*
X52639999Y-85075000D01*
X52639999Y-85075000D01*
X52640000Y-85075000D01*
D12*
X52640000Y-85075000D02*
X54360000Y-83575000D01*
X52980000Y-93375000D02*
X58980000Y-93375000D01*
X53480000Y-86975000D02*
X52180000Y-85475000D01*
X53560000Y-75675000D02*
X51860000Y-77175000D01*
X53920000Y-86575000D02*
X52640000Y-85075000D01*
X54000000Y-83175000D02*
X54860000Y-77175000D01*
D14*
X54020000Y-75275000D02*
X54019999Y-75275000D01*
X54019999Y-75275000D01*
X54019999Y-75275000D01*
X54019999Y-75275000D01*
X54019999Y-75275000D01*
X54019999Y-75275000D01*
X54019999Y-75275000D01*
X54019999Y-75274999D01*
X54019999Y-75274999D01*
X54019999Y-75274999D01*
X54019999Y-75274999D01*
X54019999Y-75274999D01*
X54020000Y-75274999D01*
X54020000Y-75274999D01*
X54020000Y-75274999D01*
X54020000Y-75274999D01*
X54020000Y-75274999D01*
X54020000Y-75274999D01*
X54020000Y-75274999D01*
X54020000Y-75274999D01*
X54020000Y-75274999D01*
X54020000Y-75274999D01*
X54020000Y-75274999D01*
X54020000Y-75274999D01*
X54020001Y-75274999D01*
X54020001Y-75274999D01*
X54020001Y-75274999D01*
X54020001Y-75274999D01*
X54020001Y-75274999D01*
X54020001Y-75274999D01*
X54020001Y-75275000D01*
X54020001Y-75275000D01*
X54020001Y-75275000D01*
X54020001Y-75275000D01*
X54020001Y-75275000D01*
X54020001Y-75275000D01*
X54020001Y-75275000D01*
X54020000Y-75275000D01*
X54020000Y-75275000D02*
X54020001Y-75275000D01*
X54020001Y-75275000D01*
X54020001Y-75275000D01*
X54020001Y-75275000D01*
X54020001Y-75275000D01*
X54020001Y-75275000D01*
X54020001Y-75275001D01*
X54020001Y-75275001D01*
X54020001Y-75275001D01*
X54020001Y-75275001D01*
X54020001Y-75275001D01*
X54020001Y-75275001D01*
X54020001Y-75275001D01*
X54020000Y-75275001D01*
X54020000Y-75275001D01*
X54020000Y-75275001D01*
X54020000Y-75275001D01*
X54020000Y-75275001D01*
X54020000Y-75275001D01*
X54020000Y-75275001D01*
X54020000Y-75275001D01*
X54020000Y-75275001D01*
X54020000Y-75275001D01*
X54020000Y-75275001D01*
X54020000Y-75275001D01*
X54019999Y-75275001D01*
X54019999Y-75275001D01*
X54019999Y-75275001D01*
X54019999Y-75275001D01*
X54019999Y-75275001D01*
X54019999Y-75275001D01*
X54019999Y-75275000D01*
X54019999Y-75275000D01*
X54019999Y-75275000D01*
X54019999Y-75275000D01*
X54019999Y-75275000D01*
X54019999Y-75275000D01*
X54020000Y-75275000D01*
D12*
X54020000Y-75275000D02*
X55720000Y-73775000D01*
X54360000Y-83575000D02*
X60360000Y-83575000D01*
X54860000Y-77175000D02*
X53560000Y-75675000D01*
X55300000Y-76775000D02*
X54020000Y-75275000D01*
X55720000Y-73775000D02*
X61720000Y-73775000D01*
X58560000Y-96375000D02*
X52560000Y-96375000D01*
X58980000Y-93375000D02*
X60260000Y-94875000D01*
X59420000Y-92975000D02*
X60720000Y-94475000D01*
X59920000Y-86575000D02*
X53920000Y-86575000D01*
X60260000Y-94875000D02*
X58560000Y-96375000D01*
X60280000Y-86975000D02*
X59420000Y-92975000D01*
X60360000Y-83575000D02*
X61640000Y-85075000D01*
D14*
X60720000Y-94475000D02*
X60719999Y-94475000D01*
X60719999Y-94475000D01*
X60719999Y-94475000D01*
X60719999Y-94475000D01*
X60719999Y-94475000D01*
X60719999Y-94475000D01*
X60719999Y-94475000D01*
X60719999Y-94474999D01*
X60719999Y-94474999D01*
X60719999Y-94474999D01*
X60719999Y-94474999D01*
X60719999Y-94474999D01*
X60720000Y-94474999D01*
X60720000Y-94474999D01*
X60720000Y-94474999D01*
X60720000Y-94474999D01*
X60720000Y-94474999D01*
X60720000Y-94474999D01*
X60720000Y-94474999D01*
X60720000Y-94474999D01*
X60720000Y-94474999D01*
X60720000Y-94474999D01*
X60720000Y-94474999D01*
X60720000Y-94474999D01*
X60720001Y-94474999D01*
X60720001Y-94474999D01*
X60720001Y-94474999D01*
X60720001Y-94474999D01*
X60720001Y-94474999D01*
X60720001Y-94474999D01*
X60720001Y-94475000D01*
X60720001Y-94475000D01*
X60720001Y-94475000D01*
X60720001Y-94475000D01*
X60720001Y-94475000D01*
X60720001Y-94475000D01*
X60720001Y-94475000D01*
X60720000Y-94475000D01*
X60720000Y-94475000D02*
X60720001Y-94475000D01*
X60720001Y-94475000D01*
X60720001Y-94475000D01*
X60720001Y-94475000D01*
X60720001Y-94475000D01*
X60720001Y-94475000D01*
X60720001Y-94475001D01*
X60720001Y-94475001D01*
X60720001Y-94475001D01*
X60720001Y-94475001D01*
X60720001Y-94475001D01*
X60720001Y-94475001D01*
X60720001Y-94475001D01*
X60720000Y-94475001D01*
X60720000Y-94475001D01*
X60720000Y-94475001D01*
X60720000Y-94475001D01*
X60720000Y-94475001D01*
X60720000Y-94475001D01*
X60720000Y-94475001D01*
X60720000Y-94475001D01*
X60720000Y-94475001D01*
X60720000Y-94475001D01*
X60720000Y-94475001D01*
X60720000Y-94475001D01*
X60719999Y-94475001D01*
X60719999Y-94475001D01*
X60719999Y-94475001D01*
X60719999Y-94475001D01*
X60719999Y-94475001D01*
X60719999Y-94475001D01*
X60719999Y-94475000D01*
X60719999Y-94475000D01*
X60719999Y-94475000D01*
X60719999Y-94475000D01*
X60719999Y-94475000D01*
X60719999Y-94475000D01*
X60720000Y-94475000D01*
D12*
X60720000Y-94475000D02*
X62420000Y-92975000D01*
X60800000Y-83175000D02*
X62100000Y-84675000D01*
X61300000Y-76775000D02*
X55300000Y-76775000D01*
X61640000Y-85075000D02*
X59920000Y-86575000D01*
X61660000Y-77175000D02*
X60800000Y-83175000D01*
X61720000Y-73775000D02*
X63020000Y-75275000D01*
X61980000Y-85475000D02*
X60280000Y-86975000D01*
D14*
X62100000Y-84675000D02*
X62099999Y-84675000D01*
X62099999Y-84675000D01*
X62099999Y-84675000D01*
X62099999Y-84675000D01*
X62099999Y-84675000D01*
X62099999Y-84675000D01*
X62099999Y-84675000D01*
X62099999Y-84674999D01*
X62099999Y-84674999D01*
X62099999Y-84674999D01*
X62099999Y-84674999D01*
X62099999Y-84674999D01*
X62100000Y-84674999D01*
X62100000Y-84674999D01*
X62100000Y-84674999D01*
X62100000Y-84674999D01*
X62100000Y-84674999D01*
X62100000Y-84674999D01*
X62100000Y-84674999D01*
X62100000Y-84674999D01*
X62100000Y-84674999D01*
X62100000Y-84674999D01*
X62100000Y-84674999D01*
X62100000Y-84674999D01*
X62100001Y-84674999D01*
X62100001Y-84674999D01*
X62100001Y-84674999D01*
X62100001Y-84674999D01*
X62100001Y-84674999D01*
X62100001Y-84674999D01*
X62100001Y-84675000D01*
X62100001Y-84675000D01*
X62100001Y-84675000D01*
X62100001Y-84675000D01*
X62100001Y-84675000D01*
X62100001Y-84675000D01*
X62100001Y-84675000D01*
X62100000Y-84675000D01*
X62100000Y-84675000D02*
X62100001Y-84675000D01*
X62100001Y-84675000D01*
X62100001Y-84675000D01*
X62100001Y-84675000D01*
X62100001Y-84675000D01*
X62100001Y-84675000D01*
X62100001Y-84675001D01*
X62100001Y-84675001D01*
X62100001Y-84675001D01*
X62100001Y-84675001D01*
X62100001Y-84675001D01*
X62100001Y-84675001D01*
X62100001Y-84675001D01*
X62100000Y-84675001D01*
X62100000Y-84675001D01*
X62100000Y-84675001D01*
X62100000Y-84675001D01*
X62100000Y-84675001D01*
X62100000Y-84675001D01*
X62100000Y-84675001D01*
X62100000Y-84675001D01*
X62100000Y-84675001D01*
X62100000Y-84675001D01*
X62100000Y-84675001D01*
X62100000Y-84675001D01*
X62099999Y-84675001D01*
X62099999Y-84675001D01*
X62099999Y-84675001D01*
X62099999Y-84675001D01*
X62099999Y-84675001D01*
X62099999Y-84675001D01*
X62099999Y-84675000D01*
X62099999Y-84675000D01*
X62099999Y-84675000D01*
X62099999Y-84675000D01*
X62099999Y-84675000D01*
X62099999Y-84675000D01*
X62100000Y-84675000D01*
D12*
X62100000Y-84675000D02*
X63800000Y-83175000D01*
X62420000Y-92975000D02*
X63280000Y-86975000D01*
X63020000Y-75275000D02*
X61300000Y-76775000D01*
X63280000Y-86975000D02*
X61980000Y-85475000D01*
X63360000Y-75675000D02*
X61660000Y-77175000D01*
X63800000Y-83175000D02*
X64660000Y-77175000D01*
X64660000Y-77175000D02*
X63360000Y-75675000D01*
X81300000Y-49025000D02*
X81300000Y-118965000D01*
X81300000Y-118965000D02*
X33255000Y-118965000D01*
X64840000Y-94875000D02*
G75*
G02*
X62240000Y-94875000I-1300000J0D01*
G01*
X62240000Y-94875000D02*
G75*
G02*
X64840000Y-94875000I1300000J0D01*
G01*
%TO.C,R82*%
X230117500Y-90882258D02*
X230117500Y-90407742D01*
X231162500Y-90882258D02*
X231162500Y-90407742D01*
%TO.C,R80*%
X229157500Y-97967258D02*
X229157500Y-97492742D01*
X230202500Y-97967258D02*
X230202500Y-97492742D01*
%TO.C,U16*%
X322700000Y-49025000D02*
X370745000Y-49025000D01*
X322700000Y-118965000D02*
X322700000Y-49025000D01*
X339065000Y-92975000D02*
X340365000Y-94475000D01*
X339925000Y-86975000D02*
X339065000Y-92975000D01*
D14*
X340365000Y-94475000D02*
X340364999Y-94475000D01*
X340364999Y-94475000D01*
X340364999Y-94475000D01*
X340364999Y-94475000D01*
X340364999Y-94475000D01*
X340364999Y-94475000D01*
X340364999Y-94475000D01*
X340364999Y-94474999D01*
X340364999Y-94474999D01*
X340364999Y-94474999D01*
X340364999Y-94474999D01*
X340364999Y-94474999D01*
X340365000Y-94474999D01*
X340365000Y-94474999D01*
X340365000Y-94474999D01*
X340365000Y-94474999D01*
X340365000Y-94474999D01*
X340365000Y-94474999D01*
X340365000Y-94474999D01*
X340365000Y-94474999D01*
X340365000Y-94474999D01*
X340365000Y-94474999D01*
X340365000Y-94474999D01*
X340365000Y-94474999D01*
X340365001Y-94474999D01*
X340365001Y-94474999D01*
X340365001Y-94474999D01*
X340365001Y-94474999D01*
X340365001Y-94474999D01*
X340365001Y-94474999D01*
X340365001Y-94475000D01*
X340365001Y-94475000D01*
X340365001Y-94475000D01*
X340365001Y-94475000D01*
X340365001Y-94475000D01*
X340365001Y-94475000D01*
X340365001Y-94475000D01*
X340365000Y-94475000D01*
X340365000Y-94475000D02*
X340365001Y-94475000D01*
X340365001Y-94475000D01*
X340365001Y-94475000D01*
X340365001Y-94475000D01*
X340365001Y-94475000D01*
X340365001Y-94475000D01*
X340365001Y-94475001D01*
X340365001Y-94475001D01*
X340365001Y-94475001D01*
X340365001Y-94475001D01*
X340365001Y-94475001D01*
X340365001Y-94475001D01*
X340365001Y-94475001D01*
X340365000Y-94475001D01*
X340365000Y-94475001D01*
X340365000Y-94475001D01*
X340365000Y-94475001D01*
X340365000Y-94475001D01*
X340365000Y-94475001D01*
X340365000Y-94475001D01*
X340365000Y-94475001D01*
X340365000Y-94475001D01*
X340365000Y-94475001D01*
X340365000Y-94475001D01*
X340365000Y-94475001D01*
X340364999Y-94475001D01*
X340364999Y-94475001D01*
X340364999Y-94475001D01*
X340364999Y-94475001D01*
X340364999Y-94475001D01*
X340364999Y-94475001D01*
X340364999Y-94475000D01*
X340364999Y-94475000D01*
X340364999Y-94475000D01*
X340364999Y-94475000D01*
X340364999Y-94475000D01*
X340364999Y-94475000D01*
X340365000Y-94475000D01*
D12*
X340365000Y-94475000D02*
X342065000Y-92975000D01*
X340445000Y-83175000D02*
X341745000Y-84675000D01*
X340660000Y-118405000D02*
X342660000Y-118405000D01*
D14*
X340705000Y-94875000D02*
X340704999Y-94875000D01*
X340704999Y-94875000D01*
X340704999Y-94875000D01*
X340704999Y-94875000D01*
X340704999Y-94875000D01*
X340704999Y-94875000D01*
X340704999Y-94875000D01*
X340704999Y-94874999D01*
X340704999Y-94874999D01*
X340704999Y-94874999D01*
X340704999Y-94874999D01*
X340704999Y-94874999D01*
X340705000Y-94874999D01*
X340705000Y-94874999D01*
X340705000Y-94874999D01*
X340705000Y-94874999D01*
X340705000Y-94874999D01*
X340705000Y-94874999D01*
X340705000Y-94874999D01*
X340705000Y-94874999D01*
X340705000Y-94874999D01*
X340705000Y-94874999D01*
X340705000Y-94874999D01*
X340705000Y-94874999D01*
X340705001Y-94874999D01*
X340705001Y-94874999D01*
X340705001Y-94874999D01*
X340705001Y-94874999D01*
X340705001Y-94874999D01*
X340705001Y-94874999D01*
X340705001Y-94875000D01*
X340705001Y-94875000D01*
X340705001Y-94875000D01*
X340705001Y-94875000D01*
X340705001Y-94875000D01*
X340705001Y-94875000D01*
X340705001Y-94875000D01*
X340705000Y-94875000D01*
X340705000Y-94875000D02*
X340705001Y-94875000D01*
X340705001Y-94875000D01*
X340705001Y-94875000D01*
X340705001Y-94875000D01*
X340705001Y-94875000D01*
X340705001Y-94875000D01*
X340705001Y-94875001D01*
X340705001Y-94875001D01*
X340705001Y-94875001D01*
X340705001Y-94875001D01*
X340705001Y-94875001D01*
X340705001Y-94875001D01*
X340705001Y-94875001D01*
X340705000Y-94875001D01*
X340705000Y-94875001D01*
X340705000Y-94875001D01*
X340705000Y-94875001D01*
X340705000Y-94875001D01*
X340705000Y-94875001D01*
X340705000Y-94875001D01*
X340705000Y-94875001D01*
X340705000Y-94875001D01*
X340705000Y-94875001D01*
X340705000Y-94875001D01*
X340705000Y-94875001D01*
X340704999Y-94875001D01*
X340704999Y-94875001D01*
X340704999Y-94875001D01*
X340704999Y-94875001D01*
X340704999Y-94875001D01*
X340704999Y-94875001D01*
X340704999Y-94875000D01*
X340704999Y-94875000D01*
X340704999Y-94875000D01*
X340704999Y-94875000D01*
X340704999Y-94875000D01*
X340704999Y-94875000D01*
X340705000Y-94875000D01*
D12*
X340705000Y-94875000D02*
X342425000Y-93375000D01*
X341305000Y-77175000D02*
X340445000Y-83175000D01*
X341625000Y-85475000D02*
X339925000Y-86975000D01*
D14*
X341745000Y-84675000D02*
X341744999Y-84675000D01*
X341744999Y-84675000D01*
X341744999Y-84675000D01*
X341744999Y-84675000D01*
X341744999Y-84675000D01*
X341744999Y-84675000D01*
X341744999Y-84675000D01*
X341744999Y-84674999D01*
X341744999Y-84674999D01*
X341744999Y-84674999D01*
X341744999Y-84674999D01*
X341744999Y-84674999D01*
X341745000Y-84674999D01*
X341745000Y-84674999D01*
X341745000Y-84674999D01*
X341745000Y-84674999D01*
X341745000Y-84674999D01*
X341745000Y-84674999D01*
X341745000Y-84674999D01*
X341745000Y-84674999D01*
X341745000Y-84674999D01*
X341745000Y-84674999D01*
X341745000Y-84674999D01*
X341745000Y-84674999D01*
X341745001Y-84674999D01*
X341745001Y-84674999D01*
X341745001Y-84674999D01*
X341745001Y-84674999D01*
X341745001Y-84674999D01*
X341745001Y-84674999D01*
X341745001Y-84675000D01*
X341745001Y-84675000D01*
X341745001Y-84675000D01*
X341745001Y-84675000D01*
X341745001Y-84675000D01*
X341745001Y-84675000D01*
X341745001Y-84675000D01*
X341745000Y-84675000D01*
X341745000Y-84675000D02*
X341745001Y-84675000D01*
X341745001Y-84675000D01*
X341745001Y-84675000D01*
X341745001Y-84675000D01*
X341745001Y-84675000D01*
X341745001Y-84675000D01*
X341745001Y-84675001D01*
X341745001Y-84675001D01*
X341745001Y-84675001D01*
X341745001Y-84675001D01*
X341745001Y-84675001D01*
X341745001Y-84675001D01*
X341745001Y-84675001D01*
X341745000Y-84675001D01*
X341745000Y-84675001D01*
X341745000Y-84675001D01*
X341745000Y-84675001D01*
X341745000Y-84675001D01*
X341745000Y-84675001D01*
X341745000Y-84675001D01*
X341745000Y-84675001D01*
X341745000Y-84675001D01*
X341745000Y-84675001D01*
X341745000Y-84675001D01*
X341745000Y-84675001D01*
X341744999Y-84675001D01*
X341744999Y-84675001D01*
X341744999Y-84675001D01*
X341744999Y-84675001D01*
X341744999Y-84675001D01*
X341744999Y-84675001D01*
X341744999Y-84675000D01*
X341744999Y-84675000D01*
X341744999Y-84675000D01*
X341744999Y-84675000D01*
X341744999Y-84675000D01*
X341744999Y-84675000D01*
X341745000Y-84675000D01*
D12*
X341745000Y-84675000D02*
X343445000Y-83175000D01*
X342005000Y-96375000D02*
X340705000Y-94875000D01*
X342065000Y-92975000D02*
X342925000Y-86975000D01*
D14*
X342085000Y-85075000D02*
X342084999Y-85075000D01*
X342084999Y-85075000D01*
X342084999Y-85075000D01*
X342084999Y-85075000D01*
X342084999Y-85075000D01*
X342084999Y-85075000D01*
X342084999Y-85075000D01*
X342084999Y-85074999D01*
X342084999Y-85074999D01*
X342084999Y-85074999D01*
X342084999Y-85074999D01*
X342084999Y-85074999D01*
X342085000Y-85074999D01*
X342085000Y-85074999D01*
X342085000Y-85074999D01*
X342085000Y-85074999D01*
X342085000Y-85074999D01*
X342085000Y-85074999D01*
X342085000Y-85074999D01*
X342085000Y-85074999D01*
X342085000Y-85074999D01*
X342085000Y-85074999D01*
X342085000Y-85074999D01*
X342085000Y-85074999D01*
X342085001Y-85074999D01*
X342085001Y-85074999D01*
X342085001Y-85074999D01*
X342085001Y-85074999D01*
X342085001Y-85074999D01*
X342085001Y-85074999D01*
X342085001Y-85075000D01*
X342085001Y-85075000D01*
X342085001Y-85075000D01*
X342085001Y-85075000D01*
X342085001Y-85075000D01*
X342085001Y-85075000D01*
X342085001Y-85075000D01*
X342085000Y-85075000D01*
X342085000Y-85075000D02*
X342085001Y-85075000D01*
X342085001Y-85075000D01*
X342085001Y-85075000D01*
X342085001Y-85075000D01*
X342085001Y-85075000D01*
X342085001Y-85075000D01*
X342085001Y-85075001D01*
X342085001Y-85075001D01*
X342085001Y-85075001D01*
X342085001Y-85075001D01*
X342085001Y-85075001D01*
X342085001Y-85075001D01*
X342085001Y-85075001D01*
X342085000Y-85075001D01*
X342085000Y-85075001D01*
X342085000Y-85075001D01*
X342085000Y-85075001D01*
X342085000Y-85075001D01*
X342085000Y-85075001D01*
X342085000Y-85075001D01*
X342085000Y-85075001D01*
X342085000Y-85075001D01*
X342085000Y-85075001D01*
X342085000Y-85075001D01*
X342085000Y-85075001D01*
X342084999Y-85075001D01*
X342084999Y-85075001D01*
X342084999Y-85075001D01*
X342084999Y-85075001D01*
X342084999Y-85075001D01*
X342084999Y-85075001D01*
X342084999Y-85075000D01*
X342084999Y-85075000D01*
X342084999Y-85075000D01*
X342084999Y-85075000D01*
X342084999Y-85075000D01*
X342084999Y-85075000D01*
X342085000Y-85075000D01*
D12*
X342085000Y-85075000D02*
X343805000Y-83575000D01*
X342425000Y-93375000D02*
X348425000Y-93375000D01*
X342925000Y-86975000D02*
X341625000Y-85475000D01*
X343005000Y-75675000D02*
X341305000Y-77175000D01*
X343365000Y-86575000D02*
X342085000Y-85075000D01*
X343445000Y-83175000D02*
X344305000Y-77175000D01*
D14*
X343465000Y-75275000D02*
X343464999Y-75275000D01*
X343464999Y-75275000D01*
X343464999Y-75275000D01*
X343464999Y-75275000D01*
X343464999Y-75275000D01*
X343464999Y-75275000D01*
X343464999Y-75275000D01*
X343464999Y-75274999D01*
X343464999Y-75274999D01*
X343464999Y-75274999D01*
X343464999Y-75274999D01*
X343464999Y-75274999D01*
X343465000Y-75274999D01*
X343465000Y-75274999D01*
X343465000Y-75274999D01*
X343465000Y-75274999D01*
X343465000Y-75274999D01*
X343465000Y-75274999D01*
X343465000Y-75274999D01*
X343465000Y-75274999D01*
X343465000Y-75274999D01*
X343465000Y-75274999D01*
X343465000Y-75274999D01*
X343465000Y-75274999D01*
X343465001Y-75274999D01*
X343465001Y-75274999D01*
X343465001Y-75274999D01*
X343465001Y-75274999D01*
X343465001Y-75274999D01*
X343465001Y-75274999D01*
X343465001Y-75275000D01*
X343465001Y-75275000D01*
X343465001Y-75275000D01*
X343465001Y-75275000D01*
X343465001Y-75275000D01*
X343465001Y-75275000D01*
X343465001Y-75275000D01*
X343465000Y-75275000D01*
X343465000Y-75275000D02*
X343465001Y-75275000D01*
X343465001Y-75275000D01*
X343465001Y-75275000D01*
X343465001Y-75275000D01*
X343465001Y-75275000D01*
X343465001Y-75275000D01*
X343465001Y-75275001D01*
X343465001Y-75275001D01*
X343465001Y-75275001D01*
X343465001Y-75275001D01*
X343465001Y-75275001D01*
X343465001Y-75275001D01*
X343465001Y-75275001D01*
X343465000Y-75275001D01*
X343465000Y-75275001D01*
X343465000Y-75275001D01*
X343465000Y-75275001D01*
X343465000Y-75275001D01*
X343465000Y-75275001D01*
X343465000Y-75275001D01*
X343465000Y-75275001D01*
X343465000Y-75275001D01*
X343465000Y-75275001D01*
X343465000Y-75275001D01*
X343465000Y-75275001D01*
X343464999Y-75275001D01*
X343464999Y-75275001D01*
X343464999Y-75275001D01*
X343464999Y-75275001D01*
X343464999Y-75275001D01*
X343464999Y-75275001D01*
X343464999Y-75275000D01*
X343464999Y-75275000D01*
X343464999Y-75275000D01*
X343464999Y-75275000D01*
X343464999Y-75275000D01*
X343464999Y-75275000D01*
X343465000Y-75275000D01*
D12*
X343465000Y-75275000D02*
X345165000Y-73775000D01*
X343805000Y-83575000D02*
X349805000Y-83575000D01*
X344305000Y-77175000D02*
X343005000Y-75675000D01*
X344745000Y-76775000D02*
X343465000Y-75275000D01*
X345165000Y-73775000D02*
X351165000Y-73775000D01*
X348005000Y-96375000D02*
X342005000Y-96375000D01*
X348425000Y-93375000D02*
X349705000Y-94875000D01*
X348865000Y-92975000D02*
X350165000Y-94475000D01*
X349365000Y-86575000D02*
X343365000Y-86575000D01*
X349705000Y-94875000D02*
X348005000Y-96375000D01*
X349725000Y-86975000D02*
X348865000Y-92975000D01*
X349805000Y-83575000D02*
X351085000Y-85075000D01*
D14*
X350165000Y-94475000D02*
X350164999Y-94475000D01*
X350164999Y-94475000D01*
X350164999Y-94475000D01*
X350164999Y-94475000D01*
X350164999Y-94475000D01*
X350164999Y-94475000D01*
X350164999Y-94475000D01*
X350164999Y-94474999D01*
X350164999Y-94474999D01*
X350164999Y-94474999D01*
X350164999Y-94474999D01*
X350164999Y-94474999D01*
X350165000Y-94474999D01*
X350165000Y-94474999D01*
X350165000Y-94474999D01*
X350165000Y-94474999D01*
X350165000Y-94474999D01*
X350165000Y-94474999D01*
X350165000Y-94474999D01*
X350165000Y-94474999D01*
X350165000Y-94474999D01*
X350165000Y-94474999D01*
X350165000Y-94474999D01*
X350165000Y-94474999D01*
X350165001Y-94474999D01*
X350165001Y-94474999D01*
X350165001Y-94474999D01*
X350165001Y-94474999D01*
X350165001Y-94474999D01*
X350165001Y-94474999D01*
X350165001Y-94475000D01*
X350165001Y-94475000D01*
X350165001Y-94475000D01*
X350165001Y-94475000D01*
X350165001Y-94475000D01*
X350165001Y-94475000D01*
X350165001Y-94475000D01*
X350165000Y-94475000D01*
X350165000Y-94475000D02*
X350165001Y-94475000D01*
X350165001Y-94475000D01*
X350165001Y-94475000D01*
X350165001Y-94475000D01*
X350165001Y-94475000D01*
X350165001Y-94475000D01*
X350165001Y-94475001D01*
X350165001Y-94475001D01*
X350165001Y-94475001D01*
X350165001Y-94475001D01*
X350165001Y-94475001D01*
X350165001Y-94475001D01*
X350165001Y-94475001D01*
X350165000Y-94475001D01*
X350165000Y-94475001D01*
X350165000Y-94475001D01*
X350165000Y-94475001D01*
X350165000Y-94475001D01*
X350165000Y-94475001D01*
X350165000Y-94475001D01*
X350165000Y-94475001D01*
X350165000Y-94475001D01*
X350165000Y-94475001D01*
X350165000Y-94475001D01*
X350165000Y-94475001D01*
X350164999Y-94475001D01*
X350164999Y-94475001D01*
X350164999Y-94475001D01*
X350164999Y-94475001D01*
X350164999Y-94475001D01*
X350164999Y-94475001D01*
X350164999Y-94475000D01*
X350164999Y-94475000D01*
X350164999Y-94475000D01*
X350164999Y-94475000D01*
X350164999Y-94475000D01*
X350164999Y-94475000D01*
X350165000Y-94475000D01*
D12*
X350165000Y-94475000D02*
X351865000Y-92975000D01*
X350245000Y-83175000D02*
X351545000Y-84675000D01*
X350745000Y-76775000D02*
X344745000Y-76775000D01*
X351085000Y-85075000D02*
X349365000Y-86575000D01*
X351105000Y-77175000D02*
X350245000Y-83175000D01*
X351165000Y-73775000D02*
X352465000Y-75275000D01*
X351425000Y-85475000D02*
X349725000Y-86975000D01*
D14*
X351545000Y-84675000D02*
X351544999Y-84675000D01*
X351544999Y-84675000D01*
X351544999Y-84675000D01*
X351544999Y-84675000D01*
X351544999Y-84675000D01*
X351544999Y-84675000D01*
X351544999Y-84675000D01*
X351544999Y-84674999D01*
X351544999Y-84674999D01*
X351544999Y-84674999D01*
X351544999Y-84674999D01*
X351544999Y-84674999D01*
X351545000Y-84674999D01*
X351545000Y-84674999D01*
X351545000Y-84674999D01*
X351545000Y-84674999D01*
X351545000Y-84674999D01*
X351545000Y-84674999D01*
X351545000Y-84674999D01*
X351545000Y-84674999D01*
X351545000Y-84674999D01*
X351545000Y-84674999D01*
X351545000Y-84674999D01*
X351545000Y-84674999D01*
X351545001Y-84674999D01*
X351545001Y-84674999D01*
X351545001Y-84674999D01*
X351545001Y-84674999D01*
X351545001Y-84674999D01*
X351545001Y-84674999D01*
X351545001Y-84675000D01*
X351545001Y-84675000D01*
X351545001Y-84675000D01*
X351545001Y-84675000D01*
X351545001Y-84675000D01*
X351545001Y-84675000D01*
X351545001Y-84675000D01*
X351545000Y-84675000D01*
X351545000Y-84675000D02*
X351545001Y-84675000D01*
X351545001Y-84675000D01*
X351545001Y-84675000D01*
X351545001Y-84675000D01*
X351545001Y-84675000D01*
X351545001Y-84675000D01*
X351545001Y-84675001D01*
X351545001Y-84675001D01*
X351545001Y-84675001D01*
X351545001Y-84675001D01*
X351545001Y-84675001D01*
X351545001Y-84675001D01*
X351545001Y-84675001D01*
X351545000Y-84675001D01*
X351545000Y-84675001D01*
X351545000Y-84675001D01*
X351545000Y-84675001D01*
X351545000Y-84675001D01*
X351545000Y-84675001D01*
X351545000Y-84675001D01*
X351545000Y-84675001D01*
X351545000Y-84675001D01*
X351545000Y-84675001D01*
X351545000Y-84675001D01*
X351545000Y-84675001D01*
X351544999Y-84675001D01*
X351544999Y-84675001D01*
X351544999Y-84675001D01*
X351544999Y-84675001D01*
X351544999Y-84675001D01*
X351544999Y-84675001D01*
X351544999Y-84675000D01*
X351544999Y-84675000D01*
X351544999Y-84675000D01*
X351544999Y-84675000D01*
X351544999Y-84675000D01*
X351544999Y-84675000D01*
X351545000Y-84675000D01*
D12*
X351545000Y-84675000D02*
X353245000Y-83175000D01*
X351865000Y-92975000D02*
X352725000Y-86975000D01*
X352465000Y-75275000D02*
X350745000Y-76775000D01*
X352725000Y-86975000D02*
X351425000Y-85475000D01*
X352805000Y-75675000D02*
X351105000Y-77175000D01*
X353245000Y-83175000D02*
X354105000Y-77175000D01*
X354105000Y-77175000D02*
X352805000Y-75675000D01*
X370745000Y-49025000D02*
X370745000Y-118965000D01*
X370745000Y-118965000D02*
X322700000Y-118965000D01*
X354285000Y-94875000D02*
G75*
G02*
X351685000Y-94875000I-1300000J0D01*
G01*
X351685000Y-94875000D02*
G75*
G02*
X354285000Y-94875000I1300000J0D01*
G01*
%TO.C,D5*%
X249783770Y-71214094D02*
X253668770Y-71214094D01*
X253668770Y-68944094D02*
X249783770Y-68944094D01*
X253668770Y-71214094D02*
X253668770Y-68944094D01*
%TO.C,R102*%
X251541492Y-83117500D02*
X252016008Y-83117500D01*
X251541492Y-84162500D02*
X252016008Y-84162500D01*
%TO.C,JP4*%
X324600000Y-122410000D02*
X324600000Y-121810000D01*
X325300000Y-121110000D02*
X326700000Y-121110000D01*
X326700000Y-123110000D02*
X325300000Y-123110000D01*
X327400000Y-121810000D02*
X327400000Y-122410000D01*
X324600000Y-121810000D02*
G75*
G02*
X325300000Y-121110000I699999J1D01*
G01*
X325300000Y-123110000D02*
G75*
G02*
X324600000Y-122410000I-1J699999D01*
G01*
X326700000Y-121110000D02*
G75*
G02*
X327400000Y-121810000I0J-700000D01*
G01*
X327400000Y-122410000D02*
G75*
G02*
X326700000Y-123110000I-700000J0D01*
G01*
%TO.C,R66*%
X335772936Y-124255000D02*
X336227064Y-124255000D01*
X335772936Y-125725000D02*
X336227064Y-125725000D01*
%TO.C,D12*%
X254783770Y-96214094D02*
X258668770Y-96214094D01*
X258668770Y-93944094D02*
X254783770Y-93944094D01*
X258668770Y-96214094D02*
X258668770Y-93944094D01*
%TO.C,Q1*%
X257090000Y-109760000D02*
X258610000Y-109760000D01*
X257090000Y-110760000D02*
X257090000Y-109760000D01*
X257090000Y-112880000D02*
X257090000Y-111880000D01*
X258610000Y-109760000D02*
X258610000Y-109810000D01*
X258610000Y-110930000D02*
X258610000Y-111710000D01*
X258610000Y-112830000D02*
X258610000Y-112880000D01*
X258610000Y-112880000D02*
X257090000Y-112880000D01*
X259150000Y-111700000D02*
X258910000Y-111370000D01*
X259390000Y-111370000D01*
X259150000Y-111700000D01*
G36*
X259150000Y-111700000D02*
G01*
X258910000Y-111370000D01*
X259390000Y-111370000D01*
X259150000Y-111700000D01*
G37*
%TO.C,R74*%
X236157500Y-97967258D02*
X236157500Y-97492742D01*
X237202500Y-97967258D02*
X237202500Y-97492742D01*
%TO.C,JP2*%
X324600000Y-127560000D02*
X324600000Y-126960000D01*
X325300000Y-126260000D02*
X326700000Y-126260000D01*
X326700000Y-128260000D02*
X325300000Y-128260000D01*
X327400000Y-126960000D02*
X327400000Y-127560000D01*
X324600000Y-126960000D02*
G75*
G02*
X325300000Y-126260000I699999J1D01*
G01*
X325300000Y-128260000D02*
G75*
G02*
X324600000Y-127560000I-1J699999D01*
G01*
X326700000Y-126260000D02*
G75*
G02*
X327400000Y-126960000I0J-700000D01*
G01*
X327400000Y-127560000D02*
G75*
G02*
X326700000Y-128260000I-700000J0D01*
G01*
%TO.C,Q2*%
X236120000Y-93422500D02*
X237120000Y-93422500D01*
X236120000Y-94942500D02*
X236120000Y-93422500D01*
X236170000Y-94942500D02*
X236120000Y-94942500D01*
X238070000Y-94942500D02*
X237290000Y-94942500D01*
X238240000Y-93422500D02*
X239240000Y-93422500D01*
X239240000Y-93422500D02*
X239240000Y-94942500D01*
X239240000Y-94942500D02*
X239190000Y-94942500D01*
X237630000Y-95722500D02*
X237300000Y-95482500D01*
X237630000Y-95242500D01*
X237630000Y-95722500D01*
G36*
X237630000Y-95722500D02*
G01*
X237300000Y-95482500D01*
X237630000Y-95242500D01*
X237630000Y-95722500D01*
G37*
%TO.C,D13*%
X249783770Y-101214094D02*
X253668770Y-101214094D01*
X253668770Y-98944094D02*
X249783770Y-98944094D01*
X253668770Y-101214094D02*
X253668770Y-98944094D01*
%TO.C,D3*%
X231100000Y-69330000D02*
X232100000Y-69330000D01*
X231100000Y-70850000D02*
X231100000Y-69330000D01*
X231150000Y-70850000D02*
X231100000Y-70850000D01*
X233050000Y-70850000D02*
X232270000Y-70850000D01*
X233220000Y-69330000D02*
X234220000Y-69330000D01*
X234220000Y-69330000D02*
X234220000Y-70850000D01*
X234220000Y-70850000D02*
X234170000Y-70850000D01*
X232610000Y-71630000D02*
X232280000Y-71390000D01*
X232610000Y-71150000D01*
X232610000Y-71630000D01*
G36*
X232610000Y-71630000D02*
G01*
X232280000Y-71390000D01*
X232610000Y-71150000D01*
X232610000Y-71630000D01*
G37*
%TO.C,U11*%
X81575000Y-49025000D02*
X129620000Y-49025000D01*
X81575000Y-118965000D02*
X81575000Y-49025000D01*
X97940000Y-92975000D02*
X99240000Y-94475000D01*
X98800000Y-86975000D02*
X97940000Y-92975000D01*
D14*
X99240000Y-94475000D02*
X99239999Y-94475000D01*
X99239999Y-94475000D01*
X99239999Y-94475000D01*
X99239999Y-94475000D01*
X99239999Y-94475000D01*
X99239999Y-94475000D01*
X99239999Y-94475000D01*
X99239999Y-94474999D01*
X99239999Y-94474999D01*
X99239999Y-94474999D01*
X99239999Y-94474999D01*
X99239999Y-94474999D01*
X99240000Y-94474999D01*
X99240000Y-94474999D01*
X99240000Y-94474999D01*
X99240000Y-94474999D01*
X99240000Y-94474999D01*
X99240000Y-94474999D01*
X99240000Y-94474999D01*
X99240000Y-94474999D01*
X99240000Y-94474999D01*
X99240000Y-94474999D01*
X99240000Y-94474999D01*
X99240000Y-94474999D01*
X99240001Y-94474999D01*
X99240001Y-94474999D01*
X99240001Y-94474999D01*
X99240001Y-94474999D01*
X99240001Y-94474999D01*
X99240001Y-94474999D01*
X99240001Y-94475000D01*
X99240001Y-94475000D01*
X99240001Y-94475000D01*
X99240001Y-94475000D01*
X99240001Y-94475000D01*
X99240001Y-94475000D01*
X99240001Y-94475000D01*
X99240000Y-94475000D01*
X99240000Y-94475000D02*
X99240001Y-94475000D01*
X99240001Y-94475000D01*
X99240001Y-94475000D01*
X99240001Y-94475000D01*
X99240001Y-94475000D01*
X99240001Y-94475000D01*
X99240001Y-94475001D01*
X99240001Y-94475001D01*
X99240001Y-94475001D01*
X99240001Y-94475001D01*
X99240001Y-94475001D01*
X99240001Y-94475001D01*
X99240001Y-94475001D01*
X99240000Y-94475001D01*
X99240000Y-94475001D01*
X99240000Y-94475001D01*
X99240000Y-94475001D01*
X99240000Y-94475001D01*
X99240000Y-94475001D01*
X99240000Y-94475001D01*
X99240000Y-94475001D01*
X99240000Y-94475001D01*
X99240000Y-94475001D01*
X99240000Y-94475001D01*
X99240000Y-94475001D01*
X99239999Y-94475001D01*
X99239999Y-94475001D01*
X99239999Y-94475001D01*
X99239999Y-94475001D01*
X99239999Y-94475001D01*
X99239999Y-94475001D01*
X99239999Y-94475000D01*
X99239999Y-94475000D01*
X99239999Y-94475000D01*
X99239999Y-94475000D01*
X99239999Y-94475000D01*
X99239999Y-94475000D01*
X99240000Y-94475000D01*
D12*
X99240000Y-94475000D02*
X100940000Y-92975000D01*
X99320000Y-83175000D02*
X100620000Y-84675000D01*
X99535000Y-118405000D02*
X101535000Y-118405000D01*
D14*
X99580000Y-94875000D02*
X99579999Y-94875000D01*
X99579999Y-94875000D01*
X99579999Y-94875000D01*
X99579999Y-94875000D01*
X99579999Y-94875000D01*
X99579999Y-94875000D01*
X99579999Y-94875000D01*
X99579999Y-94874999D01*
X99579999Y-94874999D01*
X99579999Y-94874999D01*
X99579999Y-94874999D01*
X99579999Y-94874999D01*
X99580000Y-94874999D01*
X99580000Y-94874999D01*
X99580000Y-94874999D01*
X99580000Y-94874999D01*
X99580000Y-94874999D01*
X99580000Y-94874999D01*
X99580000Y-94874999D01*
X99580000Y-94874999D01*
X99580000Y-94874999D01*
X99580000Y-94874999D01*
X99580000Y-94874999D01*
X99580000Y-94874999D01*
X99580001Y-94874999D01*
X99580001Y-94874999D01*
X99580001Y-94874999D01*
X99580001Y-94874999D01*
X99580001Y-94874999D01*
X99580001Y-94874999D01*
X99580001Y-94875000D01*
X99580001Y-94875000D01*
X99580001Y-94875000D01*
X99580001Y-94875000D01*
X99580001Y-94875000D01*
X99580001Y-94875000D01*
X99580001Y-94875000D01*
X99580000Y-94875000D01*
X99580000Y-94875000D02*
X99580001Y-94875000D01*
X99580001Y-94875000D01*
X99580001Y-94875000D01*
X99580001Y-94875000D01*
X99580001Y-94875000D01*
X99580001Y-94875000D01*
X99580001Y-94875001D01*
X99580001Y-94875001D01*
X99580001Y-94875001D01*
X99580001Y-94875001D01*
X99580001Y-94875001D01*
X99580001Y-94875001D01*
X99580001Y-94875001D01*
X99580000Y-94875001D01*
X99580000Y-94875001D01*
X99580000Y-94875001D01*
X99580000Y-94875001D01*
X99580000Y-94875001D01*
X99580000Y-94875001D01*
X99580000Y-94875001D01*
X99580000Y-94875001D01*
X99580000Y-94875001D01*
X99580000Y-94875001D01*
X99580000Y-94875001D01*
X99580000Y-94875001D01*
X99579999Y-94875001D01*
X99579999Y-94875001D01*
X99579999Y-94875001D01*
X99579999Y-94875001D01*
X99579999Y-94875001D01*
X99579999Y-94875001D01*
X99579999Y-94875000D01*
X99579999Y-94875000D01*
X99579999Y-94875000D01*
X99579999Y-94875000D01*
X99579999Y-94875000D01*
X99579999Y-94875000D01*
X99580000Y-94875000D01*
D12*
X99580000Y-94875000D02*
X101300000Y-93375000D01*
X100180000Y-77175000D02*
X99320000Y-83175000D01*
X100500000Y-85475000D02*
X98800000Y-86975000D01*
D14*
X100620000Y-84675000D02*
X100619999Y-84675000D01*
X100619999Y-84675000D01*
X100619999Y-84675000D01*
X100619999Y-84675000D01*
X100619999Y-84675000D01*
X100619999Y-84675000D01*
X100619999Y-84675000D01*
X100619999Y-84674999D01*
X100619999Y-84674999D01*
X100619999Y-84674999D01*
X100619999Y-84674999D01*
X100619999Y-84674999D01*
X100620000Y-84674999D01*
X100620000Y-84674999D01*
X100620000Y-84674999D01*
X100620000Y-84674999D01*
X100620000Y-84674999D01*
X100620000Y-84674999D01*
X100620000Y-84674999D01*
X100620000Y-84674999D01*
X100620000Y-84674999D01*
X100620000Y-84674999D01*
X100620000Y-84674999D01*
X100620000Y-84674999D01*
X100620001Y-84674999D01*
X100620001Y-84674999D01*
X100620001Y-84674999D01*
X100620001Y-84674999D01*
X100620001Y-84674999D01*
X100620001Y-84674999D01*
X100620001Y-84675000D01*
X100620001Y-84675000D01*
X100620001Y-84675000D01*
X100620001Y-84675000D01*
X100620001Y-84675000D01*
X100620001Y-84675000D01*
X100620001Y-84675000D01*
X100620000Y-84675000D01*
X100620000Y-84675000D02*
X100620001Y-84675000D01*
X100620001Y-84675000D01*
X100620001Y-84675000D01*
X100620001Y-84675000D01*
X100620001Y-84675000D01*
X100620001Y-84675000D01*
X100620001Y-84675001D01*
X100620001Y-84675001D01*
X100620001Y-84675001D01*
X100620001Y-84675001D01*
X100620001Y-84675001D01*
X100620001Y-84675001D01*
X100620001Y-84675001D01*
X100620000Y-84675001D01*
X100620000Y-84675001D01*
X100620000Y-84675001D01*
X100620000Y-84675001D01*
X100620000Y-84675001D01*
X100620000Y-84675001D01*
X100620000Y-84675001D01*
X100620000Y-84675001D01*
X100620000Y-84675001D01*
X100620000Y-84675001D01*
X100620000Y-84675001D01*
X100620000Y-84675001D01*
X100619999Y-84675001D01*
X100619999Y-84675001D01*
X100619999Y-84675001D01*
X100619999Y-84675001D01*
X100619999Y-84675001D01*
X100619999Y-84675001D01*
X100619999Y-84675000D01*
X100619999Y-84675000D01*
X100619999Y-84675000D01*
X100619999Y-84675000D01*
X100619999Y-84675000D01*
X100619999Y-84675000D01*
X100620000Y-84675000D01*
D12*
X100620000Y-84675000D02*
X102320000Y-83175000D01*
X100880000Y-96375000D02*
X99580000Y-94875000D01*
X100940000Y-92975000D02*
X101800000Y-86975000D01*
D14*
X100960000Y-85075000D02*
X100959999Y-85075000D01*
X100959999Y-85075000D01*
X100959999Y-85075000D01*
X100959999Y-85075000D01*
X100959999Y-85075000D01*
X100959999Y-85075000D01*
X100959999Y-85075000D01*
X100959999Y-85074999D01*
X100959999Y-85074999D01*
X100959999Y-85074999D01*
X100959999Y-85074999D01*
X100959999Y-85074999D01*
X100960000Y-85074999D01*
X100960000Y-85074999D01*
X100960000Y-85074999D01*
X100960000Y-85074999D01*
X100960000Y-85074999D01*
X100960000Y-85074999D01*
X100960000Y-85074999D01*
X100960000Y-85074999D01*
X100960000Y-85074999D01*
X100960000Y-85074999D01*
X100960000Y-85074999D01*
X100960000Y-85074999D01*
X100960001Y-85074999D01*
X100960001Y-85074999D01*
X100960001Y-85074999D01*
X100960001Y-85074999D01*
X100960001Y-85074999D01*
X100960001Y-85074999D01*
X100960001Y-85075000D01*
X100960001Y-85075000D01*
X100960001Y-85075000D01*
X100960001Y-85075000D01*
X100960001Y-85075000D01*
X100960001Y-85075000D01*
X100960001Y-85075000D01*
X100960000Y-85075000D01*
X100960000Y-85075000D02*
X100960001Y-85075000D01*
X100960001Y-85075000D01*
X100960001Y-85075000D01*
X100960001Y-85075000D01*
X100960001Y-85075000D01*
X100960001Y-85075000D01*
X100960001Y-85075001D01*
X100960001Y-85075001D01*
X100960001Y-85075001D01*
X100960001Y-85075001D01*
X100960001Y-85075001D01*
X100960001Y-85075001D01*
X100960001Y-85075001D01*
X100960000Y-85075001D01*
X100960000Y-85075001D01*
X100960000Y-85075001D01*
X100960000Y-85075001D01*
X100960000Y-85075001D01*
X100960000Y-85075001D01*
X100960000Y-85075001D01*
X100960000Y-85075001D01*
X100960000Y-85075001D01*
X100960000Y-85075001D01*
X100960000Y-85075001D01*
X100960000Y-85075001D01*
X100959999Y-85075001D01*
X100959999Y-85075001D01*
X100959999Y-85075001D01*
X100959999Y-85075001D01*
X100959999Y-85075001D01*
X100959999Y-85075001D01*
X100959999Y-85075000D01*
X100959999Y-85075000D01*
X100959999Y-85075000D01*
X100959999Y-85075000D01*
X100959999Y-85075000D01*
X100959999Y-85075000D01*
X100960000Y-85075000D01*
D12*
X100960000Y-85075000D02*
X102680000Y-83575000D01*
X101300000Y-93375000D02*
X107300000Y-93375000D01*
X101800000Y-86975000D02*
X100500000Y-85475000D01*
X101880000Y-75675000D02*
X100180000Y-77175000D01*
X102240000Y-86575000D02*
X100960000Y-85075000D01*
X102320000Y-83175000D02*
X103180000Y-77175000D01*
D14*
X102340000Y-75275000D02*
X102339999Y-75275000D01*
X102339999Y-75275000D01*
X102339999Y-75275000D01*
X102339999Y-75275000D01*
X102339999Y-75275000D01*
X102339999Y-75275000D01*
X102339999Y-75275000D01*
X102339999Y-75274999D01*
X102339999Y-75274999D01*
X102339999Y-75274999D01*
X102339999Y-75274999D01*
X102339999Y-75274999D01*
X102340000Y-75274999D01*
X102340000Y-75274999D01*
X102340000Y-75274999D01*
X102340000Y-75274999D01*
X102340000Y-75274999D01*
X102340000Y-75274999D01*
X102340000Y-75274999D01*
X102340000Y-75274999D01*
X102340000Y-75274999D01*
X102340000Y-75274999D01*
X102340000Y-75274999D01*
X102340000Y-75274999D01*
X102340001Y-75274999D01*
X102340001Y-75274999D01*
X102340001Y-75274999D01*
X102340001Y-75274999D01*
X102340001Y-75274999D01*
X102340001Y-75274999D01*
X102340001Y-75275000D01*
X102340001Y-75275000D01*
X102340001Y-75275000D01*
X102340001Y-75275000D01*
X102340001Y-75275000D01*
X102340001Y-75275000D01*
X102340001Y-75275000D01*
X102340000Y-75275000D01*
X102340000Y-75275000D02*
X102340001Y-75275000D01*
X102340001Y-75275000D01*
X102340001Y-75275000D01*
X102340001Y-75275000D01*
X102340001Y-75275000D01*
X102340001Y-75275000D01*
X102340001Y-75275001D01*
X102340001Y-75275001D01*
X102340001Y-75275001D01*
X102340001Y-75275001D01*
X102340001Y-75275001D01*
X102340001Y-75275001D01*
X102340001Y-75275001D01*
X102340000Y-75275001D01*
X102340000Y-75275001D01*
X102340000Y-75275001D01*
X102340000Y-75275001D01*
X102340000Y-75275001D01*
X102340000Y-75275001D01*
X102340000Y-75275001D01*
X102340000Y-75275001D01*
X102340000Y-75275001D01*
X102340000Y-75275001D01*
X102340000Y-75275001D01*
X102340000Y-75275001D01*
X102339999Y-75275001D01*
X102339999Y-75275001D01*
X102339999Y-75275001D01*
X102339999Y-75275001D01*
X102339999Y-75275001D01*
X102339999Y-75275001D01*
X102339999Y-75275000D01*
X102339999Y-75275000D01*
X102339999Y-75275000D01*
X102339999Y-75275000D01*
X102339999Y-75275000D01*
X102339999Y-75275000D01*
X102340000Y-75275000D01*
D12*
X102340000Y-75275000D02*
X104040000Y-73775000D01*
X102680000Y-83575000D02*
X108680000Y-83575000D01*
X103180000Y-77175000D02*
X101880000Y-75675000D01*
X103620000Y-76775000D02*
X102340000Y-75275000D01*
X104040000Y-73775000D02*
X110040000Y-73775000D01*
X106880000Y-96375000D02*
X100880000Y-96375000D01*
X107300000Y-93375000D02*
X108580000Y-94875000D01*
X107740000Y-92975000D02*
X109040000Y-94475000D01*
X108240000Y-86575000D02*
X102240000Y-86575000D01*
X108580000Y-94875000D02*
X106880000Y-96375000D01*
X108600000Y-86975000D02*
X107740000Y-92975000D01*
X108680000Y-83575000D02*
X109960000Y-85075000D01*
D14*
X109040000Y-94475000D02*
X109039999Y-94475000D01*
X109039999Y-94475000D01*
X109039999Y-94475000D01*
X109039999Y-94475000D01*
X109039999Y-94475000D01*
X109039999Y-94475000D01*
X109039999Y-94475000D01*
X109039999Y-94474999D01*
X109039999Y-94474999D01*
X109039999Y-94474999D01*
X109039999Y-94474999D01*
X109039999Y-94474999D01*
X109040000Y-94474999D01*
X109040000Y-94474999D01*
X109040000Y-94474999D01*
X109040000Y-94474999D01*
X109040000Y-94474999D01*
X109040000Y-94474999D01*
X109040000Y-94474999D01*
X109040000Y-94474999D01*
X109040000Y-94474999D01*
X109040000Y-94474999D01*
X109040000Y-94474999D01*
X109040000Y-94474999D01*
X109040001Y-94474999D01*
X109040001Y-94474999D01*
X109040001Y-94474999D01*
X109040001Y-94474999D01*
X109040001Y-94474999D01*
X109040001Y-94474999D01*
X109040001Y-94475000D01*
X109040001Y-94475000D01*
X109040001Y-94475000D01*
X109040001Y-94475000D01*
X109040001Y-94475000D01*
X109040001Y-94475000D01*
X109040001Y-94475000D01*
X109040000Y-94475000D01*
X109040000Y-94475000D02*
X109040001Y-94475000D01*
X109040001Y-94475000D01*
X109040001Y-94475000D01*
X109040001Y-94475000D01*
X109040001Y-94475000D01*
X109040001Y-94475000D01*
X109040001Y-94475001D01*
X109040001Y-94475001D01*
X109040001Y-94475001D01*
X109040001Y-94475001D01*
X109040001Y-94475001D01*
X109040001Y-94475001D01*
X109040001Y-94475001D01*
X109040000Y-94475001D01*
X109040000Y-94475001D01*
X109040000Y-94475001D01*
X109040000Y-94475001D01*
X109040000Y-94475001D01*
X109040000Y-94475001D01*
X109040000Y-94475001D01*
X109040000Y-94475001D01*
X109040000Y-94475001D01*
X109040000Y-94475001D01*
X109040000Y-94475001D01*
X109040000Y-94475001D01*
X109039999Y-94475001D01*
X109039999Y-94475001D01*
X109039999Y-94475001D01*
X109039999Y-94475001D01*
X109039999Y-94475001D01*
X109039999Y-94475001D01*
X109039999Y-94475000D01*
X109039999Y-94475000D01*
X109039999Y-94475000D01*
X109039999Y-94475000D01*
X109039999Y-94475000D01*
X109039999Y-94475000D01*
X109040000Y-94475000D01*
D12*
X109040000Y-94475000D02*
X110740000Y-92975000D01*
X109120000Y-83175000D02*
X110420000Y-84675000D01*
X109620000Y-76775000D02*
X103620000Y-76775000D01*
X109960000Y-85075000D02*
X108240000Y-86575000D01*
X109980000Y-77175000D02*
X109120000Y-83175000D01*
X110040000Y-73775000D02*
X111340000Y-75275000D01*
X110300000Y-85475000D02*
X108600000Y-86975000D01*
D14*
X110420000Y-84675000D02*
X110419999Y-84675000D01*
X110419999Y-84675000D01*
X110419999Y-84675000D01*
X110419999Y-84675000D01*
X110419999Y-84675000D01*
X110419999Y-84675000D01*
X110419999Y-84675000D01*
X110419999Y-84674999D01*
X110419999Y-84674999D01*
X110419999Y-84674999D01*
X110419999Y-84674999D01*
X110419999Y-84674999D01*
X110420000Y-84674999D01*
X110420000Y-84674999D01*
X110420000Y-84674999D01*
X110420000Y-84674999D01*
X110420000Y-84674999D01*
X110420000Y-84674999D01*
X110420000Y-84674999D01*
X110420000Y-84674999D01*
X110420000Y-84674999D01*
X110420000Y-84674999D01*
X110420000Y-84674999D01*
X110420000Y-84674999D01*
X110420001Y-84674999D01*
X110420001Y-84674999D01*
X110420001Y-84674999D01*
X110420001Y-84674999D01*
X110420001Y-84674999D01*
X110420001Y-84674999D01*
X110420001Y-84675000D01*
X110420001Y-84675000D01*
X110420001Y-84675000D01*
X110420001Y-84675000D01*
X110420001Y-84675000D01*
X110420001Y-84675000D01*
X110420001Y-84675000D01*
X110420000Y-84675000D01*
X110420000Y-84675000D02*
X110420001Y-84675000D01*
X110420001Y-84675000D01*
X110420001Y-84675000D01*
X110420001Y-84675000D01*
X110420001Y-84675000D01*
X110420001Y-84675000D01*
X110420001Y-84675001D01*
X110420001Y-84675001D01*
X110420001Y-84675001D01*
X110420001Y-84675001D01*
X110420001Y-84675001D01*
X110420001Y-84675001D01*
X110420001Y-84675001D01*
X110420000Y-84675001D01*
X110420000Y-84675001D01*
X110420000Y-84675001D01*
X110420000Y-84675001D01*
X110420000Y-84675001D01*
X110420000Y-84675001D01*
X110420000Y-84675001D01*
X110420000Y-84675001D01*
X110420000Y-84675001D01*
X110420000Y-84675001D01*
X110420000Y-84675001D01*
X110420000Y-84675001D01*
X110419999Y-84675001D01*
X110419999Y-84675001D01*
X110419999Y-84675001D01*
X110419999Y-84675001D01*
X110419999Y-84675001D01*
X110419999Y-84675001D01*
X110419999Y-84675000D01*
X110419999Y-84675000D01*
X110419999Y-84675000D01*
X110419999Y-84675000D01*
X110419999Y-84675000D01*
X110419999Y-84675000D01*
X110420000Y-84675000D01*
D12*
X110420000Y-84675000D02*
X112120000Y-83175000D01*
X110740000Y-92975000D02*
X111600000Y-86975000D01*
X111340000Y-75275000D02*
X109620000Y-76775000D01*
X111600000Y-86975000D02*
X110300000Y-85475000D01*
X111680000Y-75675000D02*
X109980000Y-77175000D01*
X112120000Y-83175000D02*
X112980000Y-77175000D01*
X112980000Y-77175000D02*
X111680000Y-75675000D01*
X129620000Y-49025000D02*
X129620000Y-118965000D01*
X129620000Y-118965000D02*
X81575000Y-118965000D01*
X113160000Y-94875000D02*
G75*
G02*
X110560000Y-94875000I-1300000J0D01*
G01*
X110560000Y-94875000D02*
G75*
G02*
X113160000Y-94875000I1300000J0D01*
G01*
%TO.C,BZ1*%
X256720000Y-119760000D02*
G75*
G02*
X244520000Y-119760000I-6100000J0D01*
G01*
X244520000Y-119760000D02*
G75*
G02*
X256720000Y-119760000I6100000J0D01*
G01*
%TO.C,R67*%
X335742936Y-121355000D02*
X336197064Y-121355000D01*
X335742936Y-122825000D02*
X336197064Y-122825000D01*
%TO.C,U13*%
X178215000Y-49025000D02*
X226260000Y-49025000D01*
X178215000Y-118965000D02*
X178215000Y-49025000D01*
X194580000Y-92975000D02*
X195880000Y-94475000D01*
X195440000Y-86975000D02*
X194580000Y-92975000D01*
D14*
X195880000Y-94475000D02*
X195879999Y-94475000D01*
X195879999Y-94475000D01*
X195879999Y-94475000D01*
X195879999Y-94475000D01*
X195879999Y-94475000D01*
X195879999Y-94475000D01*
X195879999Y-94475000D01*
X195879999Y-94474999D01*
X195879999Y-94474999D01*
X195879999Y-94474999D01*
X195879999Y-94474999D01*
X195879999Y-94474999D01*
X195880000Y-94474999D01*
X195880000Y-94474999D01*
X195880000Y-94474999D01*
X195880000Y-94474999D01*
X195880000Y-94474999D01*
X195880000Y-94474999D01*
X195880000Y-94474999D01*
X195880000Y-94474999D01*
X195880000Y-94474999D01*
X195880000Y-94474999D01*
X195880000Y-94474999D01*
X195880000Y-94474999D01*
X195880001Y-94474999D01*
X195880001Y-94474999D01*
X195880001Y-94474999D01*
X195880001Y-94474999D01*
X195880001Y-94474999D01*
X195880001Y-94474999D01*
X195880001Y-94475000D01*
X195880001Y-94475000D01*
X195880001Y-94475000D01*
X195880001Y-94475000D01*
X195880001Y-94475000D01*
X195880001Y-94475000D01*
X195880001Y-94475000D01*
X195880000Y-94475000D01*
X195880000Y-94475000D02*
X195880001Y-94475000D01*
X195880001Y-94475000D01*
X195880001Y-94475000D01*
X195880001Y-94475000D01*
X195880001Y-94475000D01*
X195880001Y-94475000D01*
X195880001Y-94475001D01*
X195880001Y-94475001D01*
X195880001Y-94475001D01*
X195880001Y-94475001D01*
X195880001Y-94475001D01*
X195880001Y-94475001D01*
X195880001Y-94475001D01*
X195880000Y-94475001D01*
X195880000Y-94475001D01*
X195880000Y-94475001D01*
X195880000Y-94475001D01*
X195880000Y-94475001D01*
X195880000Y-94475001D01*
X195880000Y-94475001D01*
X195880000Y-94475001D01*
X195880000Y-94475001D01*
X195880000Y-94475001D01*
X195880000Y-94475001D01*
X195880000Y-94475001D01*
X195879999Y-94475001D01*
X195879999Y-94475001D01*
X195879999Y-94475001D01*
X195879999Y-94475001D01*
X195879999Y-94475001D01*
X195879999Y-94475001D01*
X195879999Y-94475000D01*
X195879999Y-94475000D01*
X195879999Y-94475000D01*
X195879999Y-94475000D01*
X195879999Y-94475000D01*
X195879999Y-94475000D01*
X195880000Y-94475000D01*
D12*
X195880000Y-94475000D02*
X197580000Y-92975000D01*
X195960000Y-83175000D02*
X197260000Y-84675000D01*
X196175000Y-118405000D02*
X198175000Y-118405000D01*
D14*
X196220000Y-94875000D02*
X196219999Y-94875000D01*
X196219999Y-94875000D01*
X196219999Y-94875000D01*
X196219999Y-94875000D01*
X196219999Y-94875000D01*
X196219999Y-94875000D01*
X196219999Y-94875000D01*
X196219999Y-94874999D01*
X196219999Y-94874999D01*
X196219999Y-94874999D01*
X196219999Y-94874999D01*
X196219999Y-94874999D01*
X196220000Y-94874999D01*
X196220000Y-94874999D01*
X196220000Y-94874999D01*
X196220000Y-94874999D01*
X196220000Y-94874999D01*
X196220000Y-94874999D01*
X196220000Y-94874999D01*
X196220000Y-94874999D01*
X196220000Y-94874999D01*
X196220000Y-94874999D01*
X196220000Y-94874999D01*
X196220000Y-94874999D01*
X196220001Y-94874999D01*
X196220001Y-94874999D01*
X196220001Y-94874999D01*
X196220001Y-94874999D01*
X196220001Y-94874999D01*
X196220001Y-94874999D01*
X196220001Y-94875000D01*
X196220001Y-94875000D01*
X196220001Y-94875000D01*
X196220001Y-94875000D01*
X196220001Y-94875000D01*
X196220001Y-94875000D01*
X196220001Y-94875000D01*
X196220000Y-94875000D01*
X196220000Y-94875000D02*
X196220001Y-94875000D01*
X196220001Y-94875000D01*
X196220001Y-94875000D01*
X196220001Y-94875000D01*
X196220001Y-94875000D01*
X196220001Y-94875000D01*
X196220001Y-94875001D01*
X196220001Y-94875001D01*
X196220001Y-94875001D01*
X196220001Y-94875001D01*
X196220001Y-94875001D01*
X196220001Y-94875001D01*
X196220001Y-94875001D01*
X196220000Y-94875001D01*
X196220000Y-94875001D01*
X196220000Y-94875001D01*
X196220000Y-94875001D01*
X196220000Y-94875001D01*
X196220000Y-94875001D01*
X196220000Y-94875001D01*
X196220000Y-94875001D01*
X196220000Y-94875001D01*
X196220000Y-94875001D01*
X196220000Y-94875001D01*
X196220000Y-94875001D01*
X196219999Y-94875001D01*
X196219999Y-94875001D01*
X196219999Y-94875001D01*
X196219999Y-94875001D01*
X196219999Y-94875001D01*
X196219999Y-94875001D01*
X196219999Y-94875000D01*
X196219999Y-94875000D01*
X196219999Y-94875000D01*
X196219999Y-94875000D01*
X196219999Y-94875000D01*
X196219999Y-94875000D01*
X196220000Y-94875000D01*
D12*
X196220000Y-94875000D02*
X197940000Y-93375000D01*
X196820000Y-77175000D02*
X195960000Y-83175000D01*
X197140000Y-85475000D02*
X195440000Y-86975000D01*
D14*
X197260000Y-84675000D02*
X197259999Y-84675000D01*
X197259999Y-84675000D01*
X197259999Y-84675000D01*
X197259999Y-84675000D01*
X197259999Y-84675000D01*
X197259999Y-84675000D01*
X197259999Y-84675000D01*
X197259999Y-84674999D01*
X197259999Y-84674999D01*
X197259999Y-84674999D01*
X197259999Y-84674999D01*
X197259999Y-84674999D01*
X197260000Y-84674999D01*
X197260000Y-84674999D01*
X197260000Y-84674999D01*
X197260000Y-84674999D01*
X197260000Y-84674999D01*
X197260000Y-84674999D01*
X197260000Y-84674999D01*
X197260000Y-84674999D01*
X197260000Y-84674999D01*
X197260000Y-84674999D01*
X197260000Y-84674999D01*
X197260000Y-84674999D01*
X197260001Y-84674999D01*
X197260001Y-84674999D01*
X197260001Y-84674999D01*
X197260001Y-84674999D01*
X197260001Y-84674999D01*
X197260001Y-84674999D01*
X197260001Y-84675000D01*
X197260001Y-84675000D01*
X197260001Y-84675000D01*
X197260001Y-84675000D01*
X197260001Y-84675000D01*
X197260001Y-84675000D01*
X197260001Y-84675000D01*
X197260000Y-84675000D01*
X197260000Y-84675000D02*
X197260001Y-84675000D01*
X197260001Y-84675000D01*
X197260001Y-84675000D01*
X197260001Y-84675000D01*
X197260001Y-84675000D01*
X197260001Y-84675000D01*
X197260001Y-84675001D01*
X197260001Y-84675001D01*
X197260001Y-84675001D01*
X197260001Y-84675001D01*
X197260001Y-84675001D01*
X197260001Y-84675001D01*
X197260001Y-84675001D01*
X197260000Y-84675001D01*
X197260000Y-84675001D01*
X197260000Y-84675001D01*
X197260000Y-84675001D01*
X197260000Y-84675001D01*
X197260000Y-84675001D01*
X197260000Y-84675001D01*
X197260000Y-84675001D01*
X197260000Y-84675001D01*
X197260000Y-84675001D01*
X197260000Y-84675001D01*
X197260000Y-84675001D01*
X197259999Y-84675001D01*
X197259999Y-84675001D01*
X197259999Y-84675001D01*
X197259999Y-84675001D01*
X197259999Y-84675001D01*
X197259999Y-84675001D01*
X197259999Y-84675000D01*
X197259999Y-84675000D01*
X197259999Y-84675000D01*
X197259999Y-84675000D01*
X197259999Y-84675000D01*
X197259999Y-84675000D01*
X197260000Y-84675000D01*
D12*
X197260000Y-84675000D02*
X198960000Y-83175000D01*
X197520000Y-96375000D02*
X196220000Y-94875000D01*
X197580000Y-92975000D02*
X198440000Y-86975000D01*
D14*
X197600000Y-85075000D02*
X197599999Y-85075000D01*
X197599999Y-85075000D01*
X197599999Y-85075000D01*
X197599999Y-85075000D01*
X197599999Y-85075000D01*
X197599999Y-85075000D01*
X197599999Y-85075000D01*
X197599999Y-85074999D01*
X197599999Y-85074999D01*
X197599999Y-85074999D01*
X197599999Y-85074999D01*
X197599999Y-85074999D01*
X197600000Y-85074999D01*
X197600000Y-85074999D01*
X197600000Y-85074999D01*
X197600000Y-85074999D01*
X197600000Y-85074999D01*
X197600000Y-85074999D01*
X197600000Y-85074999D01*
X197600000Y-85074999D01*
X197600000Y-85074999D01*
X197600000Y-85074999D01*
X197600000Y-85074999D01*
X197600000Y-85074999D01*
X197600001Y-85074999D01*
X197600001Y-85074999D01*
X197600001Y-85074999D01*
X197600001Y-85074999D01*
X197600001Y-85074999D01*
X197600001Y-85074999D01*
X197600001Y-85075000D01*
X197600001Y-85075000D01*
X197600001Y-85075000D01*
X197600001Y-85075000D01*
X197600001Y-85075000D01*
X197600001Y-85075000D01*
X197600001Y-85075000D01*
X197600000Y-85075000D01*
X197600000Y-85075000D02*
X197600001Y-85075000D01*
X197600001Y-85075000D01*
X197600001Y-85075000D01*
X197600001Y-85075000D01*
X197600001Y-85075000D01*
X197600001Y-85075000D01*
X197600001Y-85075001D01*
X197600001Y-85075001D01*
X197600001Y-85075001D01*
X197600001Y-85075001D01*
X197600001Y-85075001D01*
X197600001Y-85075001D01*
X197600001Y-85075001D01*
X197600000Y-85075001D01*
X197600000Y-85075001D01*
X197600000Y-85075001D01*
X197600000Y-85075001D01*
X197600000Y-85075001D01*
X197600000Y-85075001D01*
X197600000Y-85075001D01*
X197600000Y-85075001D01*
X197600000Y-85075001D01*
X197600000Y-85075001D01*
X197600000Y-85075001D01*
X197600000Y-85075001D01*
X197599999Y-85075001D01*
X197599999Y-85075001D01*
X197599999Y-85075001D01*
X197599999Y-85075001D01*
X197599999Y-85075001D01*
X197599999Y-85075001D01*
X197599999Y-85075000D01*
X197599999Y-85075000D01*
X197599999Y-85075000D01*
X197599999Y-85075000D01*
X197599999Y-85075000D01*
X197599999Y-85075000D01*
X197600000Y-85075000D01*
D12*
X197600000Y-85075000D02*
X199320000Y-83575000D01*
X197940000Y-93375000D02*
X203940000Y-93375000D01*
X198440000Y-86975000D02*
X197140000Y-85475000D01*
X198520000Y-75675000D02*
X196820000Y-77175000D01*
X198880000Y-86575000D02*
X197600000Y-85075000D01*
X198960000Y-83175000D02*
X199820000Y-77175000D01*
D14*
X198980000Y-75275000D02*
X198979999Y-75275000D01*
X198979999Y-75275000D01*
X198979999Y-75275000D01*
X198979999Y-75275000D01*
X198979999Y-75275000D01*
X198979999Y-75275000D01*
X198979999Y-75275000D01*
X198979999Y-75274999D01*
X198979999Y-75274999D01*
X198979999Y-75274999D01*
X198979999Y-75274999D01*
X198979999Y-75274999D01*
X198980000Y-75274999D01*
X198980000Y-75274999D01*
X198980000Y-75274999D01*
X198980000Y-75274999D01*
X198980000Y-75274999D01*
X198980000Y-75274999D01*
X198980000Y-75274999D01*
X198980000Y-75274999D01*
X198980000Y-75274999D01*
X198980000Y-75274999D01*
X198980000Y-75274999D01*
X198980000Y-75274999D01*
X198980001Y-75274999D01*
X198980001Y-75274999D01*
X198980001Y-75274999D01*
X198980001Y-75274999D01*
X198980001Y-75274999D01*
X198980001Y-75274999D01*
X198980001Y-75275000D01*
X198980001Y-75275000D01*
X198980001Y-75275000D01*
X198980001Y-75275000D01*
X198980001Y-75275000D01*
X198980001Y-75275000D01*
X198980001Y-75275000D01*
X198980000Y-75275000D01*
X198980000Y-75275000D02*
X198980001Y-75275000D01*
X198980001Y-75275000D01*
X198980001Y-75275000D01*
X198980001Y-75275000D01*
X198980001Y-75275000D01*
X198980001Y-75275000D01*
X198980001Y-75275001D01*
X198980001Y-75275001D01*
X198980001Y-75275001D01*
X198980001Y-75275001D01*
X198980001Y-75275001D01*
X198980001Y-75275001D01*
X198980001Y-75275001D01*
X198980000Y-75275001D01*
X198980000Y-75275001D01*
X198980000Y-75275001D01*
X198980000Y-75275001D01*
X198980000Y-75275001D01*
X198980000Y-75275001D01*
X198980000Y-75275001D01*
X198980000Y-75275001D01*
X198980000Y-75275001D01*
X198980000Y-75275001D01*
X198980000Y-75275001D01*
X198980000Y-75275001D01*
X198979999Y-75275001D01*
X198979999Y-75275001D01*
X198979999Y-75275001D01*
X198979999Y-75275001D01*
X198979999Y-75275001D01*
X198979999Y-75275001D01*
X198979999Y-75275000D01*
X198979999Y-75275000D01*
X198979999Y-75275000D01*
X198979999Y-75275000D01*
X198979999Y-75275000D01*
X198979999Y-75275000D01*
X198980000Y-75275000D01*
D12*
X198980000Y-75275000D02*
X200680000Y-73775000D01*
X199320000Y-83575000D02*
X205320000Y-83575000D01*
X199820000Y-77175000D02*
X198520000Y-75675000D01*
X200260000Y-76775000D02*
X198980000Y-75275000D01*
X200680000Y-73775000D02*
X206680000Y-73775000D01*
X203520000Y-96375000D02*
X197520000Y-96375000D01*
X203940000Y-93375000D02*
X205220000Y-94875000D01*
X204380000Y-92975000D02*
X205680000Y-94475000D01*
X204880000Y-86575000D02*
X198880000Y-86575000D01*
X205220000Y-94875000D02*
X203520000Y-96375000D01*
X205240000Y-86975000D02*
X204380000Y-92975000D01*
X205320000Y-83575000D02*
X206600000Y-85075000D01*
D14*
X205680000Y-94475000D02*
X205679999Y-94475000D01*
X205679999Y-94475000D01*
X205679999Y-94475000D01*
X205679999Y-94475000D01*
X205679999Y-94475000D01*
X205679999Y-94475000D01*
X205679999Y-94475000D01*
X205679999Y-94474999D01*
X205679999Y-94474999D01*
X205679999Y-94474999D01*
X205679999Y-94474999D01*
X205679999Y-94474999D01*
X205680000Y-94474999D01*
X205680000Y-94474999D01*
X205680000Y-94474999D01*
X205680000Y-94474999D01*
X205680000Y-94474999D01*
X205680000Y-94474999D01*
X205680000Y-94474999D01*
X205680000Y-94474999D01*
X205680000Y-94474999D01*
X205680000Y-94474999D01*
X205680000Y-94474999D01*
X205680000Y-94474999D01*
X205680001Y-94474999D01*
X205680001Y-94474999D01*
X205680001Y-94474999D01*
X205680001Y-94474999D01*
X205680001Y-94474999D01*
X205680001Y-94474999D01*
X205680001Y-94475000D01*
X205680001Y-94475000D01*
X205680001Y-94475000D01*
X205680001Y-94475000D01*
X205680001Y-94475000D01*
X205680001Y-94475000D01*
X205680001Y-94475000D01*
X205680000Y-94475000D01*
X205680000Y-94475000D02*
X205680001Y-94475000D01*
X205680001Y-94475000D01*
X205680001Y-94475000D01*
X205680001Y-94475000D01*
X205680001Y-94475000D01*
X205680001Y-94475000D01*
X205680001Y-94475001D01*
X205680001Y-94475001D01*
X205680001Y-94475001D01*
X205680001Y-94475001D01*
X205680001Y-94475001D01*
X205680001Y-94475001D01*
X205680001Y-94475001D01*
X205680000Y-94475001D01*
X205680000Y-94475001D01*
X205680000Y-94475001D01*
X205680000Y-94475001D01*
X205680000Y-94475001D01*
X205680000Y-94475001D01*
X205680000Y-94475001D01*
X205680000Y-94475001D01*
X205680000Y-94475001D01*
X205680000Y-94475001D01*
X205680000Y-94475001D01*
X205680000Y-94475001D01*
X205679999Y-94475001D01*
X205679999Y-94475001D01*
X205679999Y-94475001D01*
X205679999Y-94475001D01*
X205679999Y-94475001D01*
X205679999Y-94475001D01*
X205679999Y-94475000D01*
X205679999Y-94475000D01*
X205679999Y-94475000D01*
X205679999Y-94475000D01*
X205679999Y-94475000D01*
X205679999Y-94475000D01*
X205680000Y-94475000D01*
D12*
X205680000Y-94475000D02*
X207380000Y-92975000D01*
X205760000Y-83175000D02*
X207060000Y-84675000D01*
X206260000Y-76775000D02*
X200260000Y-76775000D01*
X206600000Y-85075000D02*
X204880000Y-86575000D01*
X206620000Y-77175000D02*
X205760000Y-83175000D01*
X206680000Y-73775000D02*
X207980000Y-75275000D01*
X206940000Y-85475000D02*
X205240000Y-86975000D01*
D14*
X207060000Y-84675000D02*
X207059999Y-84675000D01*
X207059999Y-84675000D01*
X207059999Y-84675000D01*
X207059999Y-84675000D01*
X207059999Y-84675000D01*
X207059999Y-84675000D01*
X207059999Y-84675000D01*
X207059999Y-84674999D01*
X207059999Y-84674999D01*
X207059999Y-84674999D01*
X207059999Y-84674999D01*
X207059999Y-84674999D01*
X207060000Y-84674999D01*
X207060000Y-84674999D01*
X207060000Y-84674999D01*
X207060000Y-84674999D01*
X207060000Y-84674999D01*
X207060000Y-84674999D01*
X207060000Y-84674999D01*
X207060000Y-84674999D01*
X207060000Y-84674999D01*
X207060000Y-84674999D01*
X207060000Y-84674999D01*
X207060000Y-84674999D01*
X207060001Y-84674999D01*
X207060001Y-84674999D01*
X207060001Y-84674999D01*
X207060001Y-84674999D01*
X207060001Y-84674999D01*
X207060001Y-84674999D01*
X207060001Y-84675000D01*
X207060001Y-84675000D01*
X207060001Y-84675000D01*
X207060001Y-84675000D01*
X207060001Y-84675000D01*
X207060001Y-84675000D01*
X207060001Y-84675000D01*
X207060000Y-84675000D01*
X207060000Y-84675000D02*
X207060001Y-84675000D01*
X207060001Y-84675000D01*
X207060001Y-84675000D01*
X207060001Y-84675000D01*
X207060001Y-84675000D01*
X207060001Y-84675000D01*
X207060001Y-84675001D01*
X207060001Y-84675001D01*
X207060001Y-84675001D01*
X207060001Y-84675001D01*
X207060001Y-84675001D01*
X207060001Y-84675001D01*
X207060001Y-84675001D01*
X207060000Y-84675001D01*
X207060000Y-84675001D01*
X207060000Y-84675001D01*
X207060000Y-84675001D01*
X207060000Y-84675001D01*
X207060000Y-84675001D01*
X207060000Y-84675001D01*
X207060000Y-84675001D01*
X207060000Y-84675001D01*
X207060000Y-84675001D01*
X207060000Y-84675001D01*
X207060000Y-84675001D01*
X207059999Y-84675001D01*
X207059999Y-84675001D01*
X207059999Y-84675001D01*
X207059999Y-84675001D01*
X207059999Y-84675001D01*
X207059999Y-84675001D01*
X207059999Y-84675000D01*
X207059999Y-84675000D01*
X207059999Y-84675000D01*
X207059999Y-84675000D01*
X207059999Y-84675000D01*
X207059999Y-84675000D01*
X207060000Y-84675000D01*
D12*
X207060000Y-84675000D02*
X208760000Y-83175000D01*
X207380000Y-92975000D02*
X208240000Y-86975000D01*
X207980000Y-75275000D02*
X206260000Y-76775000D01*
X208240000Y-86975000D02*
X206940000Y-85475000D01*
X208320000Y-75675000D02*
X206620000Y-77175000D01*
X208760000Y-83175000D02*
X209620000Y-77175000D01*
X209620000Y-77175000D02*
X208320000Y-75675000D01*
X226260000Y-49025000D02*
X226260000Y-118965000D01*
X226260000Y-118965000D02*
X178215000Y-118965000D01*
X209800000Y-94875000D02*
G75*
G02*
X207200000Y-94875000I-1300000J0D01*
G01*
X207200000Y-94875000D02*
G75*
G02*
X209800000Y-94875000I1300000J0D01*
G01*
%TO.C,Q5*%
X254573750Y-83030000D02*
X256093750Y-83030000D01*
X254573750Y-83080000D02*
X254573750Y-83030000D01*
X254573750Y-84980000D02*
X254573750Y-84200000D01*
X254573750Y-86150000D02*
X254573750Y-86100000D01*
X256093750Y-83030000D02*
X256093750Y-84030000D01*
X256093750Y-85150000D02*
X256093750Y-86150000D01*
X256093750Y-86150000D02*
X254573750Y-86150000D01*
X254273750Y-84540000D02*
X253793750Y-84540000D01*
X254033750Y-84210000D01*
X254273750Y-84540000D01*
G36*
X254273750Y-84540000D02*
G01*
X253793750Y-84540000D01*
X254033750Y-84210000D01*
X254273750Y-84540000D01*
G37*
%TO.C,R79*%
X234607500Y-90897258D02*
X234607500Y-90422742D01*
X235652500Y-90897258D02*
X235652500Y-90422742D01*
%TO.C,R99*%
X261133314Y-82235000D02*
X260679186Y-82235000D01*
X261133314Y-83705000D02*
X260679186Y-83705000D01*
%TO.C,Q3*%
X232620000Y-93422500D02*
X233620000Y-93422500D01*
X232620000Y-94942500D02*
X232620000Y-93422500D01*
X232670000Y-94942500D02*
X232620000Y-94942500D01*
X234570000Y-94942500D02*
X233790000Y-94942500D01*
X234740000Y-93422500D02*
X235740000Y-93422500D01*
X235740000Y-93422500D02*
X235740000Y-94942500D01*
X235740000Y-94942500D02*
X235690000Y-94942500D01*
X234130000Y-95722500D02*
X233800000Y-95482500D01*
X234130000Y-95242500D01*
X234130000Y-95722500D01*
G36*
X234130000Y-95722500D02*
G01*
X233800000Y-95482500D01*
X234130000Y-95242500D01*
X234130000Y-95722500D01*
G37*
%TO.C,D8*%
X244783770Y-66214094D02*
X248668770Y-66214094D01*
X248668770Y-63944094D02*
X244783770Y-63944094D01*
X248668770Y-66214094D02*
X248668770Y-63944094D01*
%TD*%
M02*
