%TF.GenerationSoftware,KiCad,Pcbnew,10.0.1*%
%TF.CreationDate,2026-08-25T15:43:38+03:00*%
%TF.ProjectId,Queue_Local_Display_ATmega328PB,51756575-655f-44c6-9f63-616c5f446973,rev?*%
%TF.SameCoordinates,Original*%
%TF.FileFunction,Soldermask,Top*%
%TF.FilePolarity,Negative*%
%FSLAX46Y46*%
G04 Gerber Fmt 4.6, Leading zero omitted, Abs format (unit mm)*
G04 Created by KiCad (PCBNEW 10.0.1) date 2026-08-25 15:43:38*
%MOMM*%
%LPD*%
G01*
G04 APERTURE LIST*
G04 Aperture macros list*
%AMRoundRect*
0 Rectangle with rounded corners*
0 $1 Rounding radius*
0 $2 $3 $4 $5 $6 $7 $8 $9 X,Y pos of 4 corners*
0 Add a 4 corners polygon primitive as box body*
4,1,4,$2,$3,$4,$5,$6,$7,$8,$9,$2,$3,0*
0 Add four circle primitives for the rounded corners*
1,1,$1+$1,$2,$3*
1,1,$1+$1,$4,$5*
1,1,$1+$1,$6,$7*
1,1,$1+$1,$8,$9*
0 Add four rect primitives between the rounded corners*
20,1,$1+$1,$2,$3,$4,$5,0*
20,1,$1+$1,$4,$5,$6,$7,0*
20,1,$1+$1,$6,$7,$8,$9,0*
20,1,$1+$1,$8,$9,$2,$3,0*%
%AMFreePoly0*
4,1,23,0.500000,-0.750000,0.000000,-0.750000,0.000000,-0.745722,-0.065263,-0.745722,-0.191342,-0.711940,-0.304381,-0.646677,-0.396677,-0.554381,-0.461940,-0.441342,-0.495722,-0.315263,-0.495722,-0.250000,-0.500000,-0.250000,-0.500000,0.250000,-0.495722,0.250000,-0.495722,0.315263,-0.461940,0.441342,-0.396677,0.554381,-0.304381,0.646677,-0.191342,0.711940,-0.065263,0.745722,0.000000,0.745722,
0.000000,0.750000,0.500000,0.750000,0.500000,-0.750000,0.500000,-0.750000,$1*%
%AMFreePoly1*
4,1,23,0.000000,0.745722,0.065263,0.745722,0.191342,0.711940,0.304381,0.646677,0.396677,0.554381,0.461940,0.441342,0.495722,0.315263,0.495722,0.250000,0.500000,0.250000,0.500000,-0.250000,0.495722,-0.250000,0.495722,-0.315263,0.461940,-0.441342,0.396677,-0.554381,0.304381,-0.646677,0.191342,-0.711940,0.065263,-0.745722,0.000000,-0.745722,0.000000,-0.750000,-0.500000,-0.750000,
-0.500000,0.750000,0.000000,0.750000,0.000000,0.745722,0.000000,0.745722,$1*%
G04 Aperture macros list end*
%ADD10RoundRect,0.250000X-0.262500X-0.450000X0.262500X-0.450000X0.262500X0.450000X-0.262500X0.450000X0*%
%ADD11FreePoly0,180.000000*%
%ADD12FreePoly1,180.000000*%
%ADD13R,1.524000X2.524000*%
%ADD14O,1.524000X2.524000*%
%ADD15RoundRect,0.200000X0.275000X-0.200000X0.275000X0.200000X-0.275000X0.200000X-0.275000X-0.200000X0*%
%ADD16C,3.200000*%
%ADD17R,1.800000X1.800000*%
%ADD18C,1.800000*%
%ADD19RoundRect,0.250000X0.375000X0.625000X-0.375000X0.625000X-0.375000X-0.625000X0.375000X-0.625000X0*%
%ADD20R,1.500000X1.500000*%
%ADD21C,1.500000*%
%ADD22RoundRect,0.250000X-1.000000X-0.650000X1.000000X-0.650000X1.000000X0.650000X-1.000000X0.650000X0*%
%ADD23FreePoly0,0.000000*%
%ADD24FreePoly1,0.000000*%
%ADD25RoundRect,0.250000X0.450000X-0.262500X0.450000X0.262500X-0.450000X0.262500X-0.450000X-0.262500X0*%
%ADD26RoundRect,0.250000X0.262500X0.450000X-0.262500X0.450000X-0.262500X-0.450000X0.262500X-0.450000X0*%
%ADD27RoundRect,0.200000X-0.200000X-0.275000X0.200000X-0.275000X0.200000X0.275000X-0.200000X0.275000X0*%
%ADD28RoundRect,0.200000X-0.275000X0.200000X-0.275000X-0.200000X0.275000X-0.200000X0.275000X0.200000X0*%
%ADD29RoundRect,0.150000X0.150000X-0.587500X0.150000X0.587500X-0.150000X0.587500X-0.150000X-0.587500X0*%
%ADD30RoundRect,0.150000X0.587500X0.150000X-0.587500X0.150000X-0.587500X-0.150000X0.587500X-0.150000X0*%
%ADD31R,2.000000X2.000000*%
%ADD32C,2.000000*%
%ADD33RoundRect,0.150000X-0.587500X-0.150000X0.587500X-0.150000X0.587500X0.150000X-0.587500X0.150000X0*%
%ADD34O,4.014000X2.109000*%
%ADD35C,2.134400*%
%ADD36O,4.064800X2.134400*%
%ADD37R,1.700000X1.700000*%
%ADD38C,1.700000*%
G04 APERTURE END LIST*
%TO.C,JP1*%
G36*
X236530000Y-62700000D02*
G01*
X236830000Y-62700000D01*
X236830000Y-64200000D01*
X236530000Y-64200000D01*
X236530000Y-62700000D01*
G37*
%TO.C,JP3*%
G36*
X325850000Y-123950000D02*
G01*
X326150000Y-123950000D01*
X326150000Y-125450000D01*
X325850000Y-125450000D01*
X325850000Y-123950000D01*
G37*
%TO.C,JP4*%
G36*
X325850000Y-121360000D02*
G01*
X326150000Y-121360000D01*
X326150000Y-122860000D01*
X325850000Y-122860000D01*
X325850000Y-121360000D01*
G37*
%TO.C,JP2*%
G36*
X325850000Y-126510000D02*
G01*
X326150000Y-126510000D01*
X326150000Y-128010000D01*
X325850000Y-128010000D01*
X325850000Y-126510000D01*
G37*
%TD*%
D10*
%TO.C,R68*%
X331607500Y-122100000D03*
X333432500Y-122100000D03*
%TD*%
D11*
%TO.C,JP1*%
X237330000Y-63450000D03*
D12*
X236030000Y-63450000D03*
%TD*%
D13*
%TO.C,AFF2*%
X329740000Y-100570000D03*
D14*
X332280000Y-100570000D03*
X334820000Y-100570000D03*
X337360000Y-100570000D03*
X339900000Y-100570000D03*
X339900000Y-70090000D03*
X337360000Y-70090000D03*
X334820000Y-70090000D03*
X332280000Y-70090000D03*
X329740000Y-70090000D03*
%TD*%
D15*
%TO.C,R81*%
X231180000Y-98555000D03*
X231180000Y-96905000D03*
%TD*%
D16*
%TO.C,REF\u002A\u002A*%
X307500000Y-42500000D03*
%TD*%
D17*
%TO.C,D6*%
X230671000Y-85814459D03*
D18*
X232830000Y-85814459D03*
X234989000Y-85814459D03*
X237148000Y-85814459D03*
%TD*%
D16*
%TO.C,REF\u002A\u002A*%
X142500000Y-42500000D03*
%TD*%
D19*
%TO.C,D14*%
X247783770Y-105079094D03*
X244983770Y-105079094D03*
%TD*%
D20*
%TO.C,U12*%
X148840000Y-114095000D03*
D21*
X151380000Y-114095000D03*
X153920000Y-114095000D03*
X156460000Y-114095000D03*
X159000000Y-114095000D03*
X159000000Y-53895000D03*
X156460000Y-53895000D03*
X153920000Y-53895000D03*
X151380000Y-53895000D03*
X148840000Y-53895000D03*
%TD*%
D22*
%TO.C,D4*%
X248720000Y-111260000D03*
X252720000Y-111260000D03*
%TD*%
D19*
%TO.C,D9*%
X262783770Y-80079094D03*
X259983770Y-80079094D03*
%TD*%
D15*
%TO.C,R75*%
X238180000Y-98555000D03*
X238180000Y-96905000D03*
%TD*%
D10*
%TO.C,R65*%
X335115000Y-127180000D03*
X336940000Y-127180000D03*
%TD*%
D13*
%TO.C,AFF1*%
X305240000Y-100570000D03*
D14*
X307780000Y-100570000D03*
X310320000Y-100570000D03*
X312860000Y-100570000D03*
X315400000Y-100570000D03*
X315400000Y-70090000D03*
X312860000Y-70090000D03*
X310320000Y-70090000D03*
X307780000Y-70090000D03*
X305240000Y-70090000D03*
%TD*%
D19*
%TO.C,D11*%
X262783770Y-90079094D03*
X259983770Y-90079094D03*
%TD*%
D23*
%TO.C,JP3*%
X325350000Y-124700000D03*
D24*
X326650000Y-124700000D03*
%TD*%
D15*
%TO.C,R73*%
X259287500Y-115695000D03*
X259287500Y-114045000D03*
%TD*%
%TO.C,R77*%
X233180000Y-98555000D03*
X233180000Y-96905000D03*
%TD*%
%TO.C,R76*%
X237130000Y-91470000D03*
X237130000Y-89820000D03*
%TD*%
%TO.C,R78*%
X234680000Y-98555000D03*
X234680000Y-96905000D03*
%TD*%
D25*
%TO.C,R63*%
X233620000Y-65752500D03*
X233620000Y-63927500D03*
%TD*%
D16*
%TO.C,REF\u002A\u002A*%
X142500000Y-127500000D03*
%TD*%
D19*
%TO.C,D7*%
X257783770Y-75079094D03*
X254983770Y-75079094D03*
%TD*%
D26*
%TO.C,R100*%
X246808750Y-102680000D03*
X244983750Y-102680000D03*
%TD*%
D27*
%TO.C,R103*%
X250963750Y-85540000D03*
X252613750Y-85540000D03*
%TD*%
D20*
%TO.C,U15*%
X293330000Y-114095000D03*
D21*
X295870000Y-114095000D03*
X298410000Y-114095000D03*
X300950000Y-114095000D03*
X303490000Y-114095000D03*
X303490000Y-53895000D03*
X300950000Y-53895000D03*
X298410000Y-53895000D03*
X295870000Y-53895000D03*
X293330000Y-53895000D03*
%TD*%
D19*
%TO.C,D10*%
X267783770Y-85079094D03*
X264983770Y-85079094D03*
%TD*%
D28*
%TO.C,R72*%
X257787500Y-114045000D03*
X257787500Y-115695000D03*
%TD*%
D29*
%TO.C,Q4*%
X229730000Y-95120000D03*
X231630000Y-95120000D03*
X230680000Y-93245000D03*
%TD*%
D26*
%TO.C,R64*%
X237600000Y-65750000D03*
X235775000Y-65750000D03*
%TD*%
%TO.C,R101*%
X246806250Y-67900000D03*
X244981250Y-67900000D03*
%TD*%
D16*
%TO.C,REF\u002A\u002A*%
X42500000Y-127500000D03*
%TD*%
%TO.C,REF\u002A\u002A*%
X360000000Y-42500000D03*
%TD*%
D25*
%TO.C,R62*%
X231670000Y-65752500D03*
X231670000Y-63927500D03*
%TD*%
D20*
%TO.C,U10*%
X52200000Y-114095000D03*
D21*
X54740000Y-114095000D03*
X57280000Y-114095000D03*
X59820000Y-114095000D03*
X62360000Y-114095000D03*
X62360000Y-53895000D03*
X59820000Y-53895000D03*
X57280000Y-53895000D03*
X54740000Y-53895000D03*
X52200000Y-53895000D03*
%TD*%
D15*
%TO.C,R82*%
X230640000Y-91470000D03*
X230640000Y-89820000D03*
%TD*%
%TO.C,R80*%
X229680000Y-98555000D03*
X229680000Y-96905000D03*
%TD*%
D20*
%TO.C,U16*%
X341645000Y-114095000D03*
D21*
X344185000Y-114095000D03*
X346725000Y-114095000D03*
X349265000Y-114095000D03*
X351805000Y-114095000D03*
X351805000Y-53895000D03*
X349265000Y-53895000D03*
X346725000Y-53895000D03*
X344185000Y-53895000D03*
X341645000Y-53895000D03*
%TD*%
D19*
%TO.C,D5*%
X252783770Y-70079094D03*
X249983770Y-70079094D03*
%TD*%
D27*
%TO.C,R102*%
X250953750Y-83640000D03*
X252603750Y-83640000D03*
%TD*%
D16*
%TO.C,REF\u002A\u002A*%
X307500000Y-127500000D03*
%TD*%
D23*
%TO.C,JP4*%
X325350000Y-122110000D03*
D24*
X326650000Y-122110000D03*
%TD*%
D10*
%TO.C,R66*%
X335087500Y-124990000D03*
X336912500Y-124990000D03*
%TD*%
D19*
%TO.C,D12*%
X257783770Y-95079094D03*
X254983770Y-95079094D03*
%TD*%
D30*
%TO.C,Q1*%
X258787500Y-112270000D03*
X258787500Y-110370000D03*
X256912500Y-111320000D03*
%TD*%
D15*
%TO.C,R74*%
X236680000Y-98555000D03*
X236680000Y-96905000D03*
%TD*%
D23*
%TO.C,JP2*%
X325350000Y-127260000D03*
D24*
X326650000Y-127260000D03*
%TD*%
D29*
%TO.C,Q2*%
X236730000Y-95120000D03*
X238630000Y-95120000D03*
X237680000Y-93245000D03*
%TD*%
D16*
%TO.C,REF\u002A\u002A*%
X42500000Y-42500000D03*
%TD*%
D19*
%TO.C,D13*%
X252783770Y-100079094D03*
X249983770Y-100079094D03*
%TD*%
D16*
%TO.C,REF\u002A\u002A*%
X235000000Y-127500000D03*
%TD*%
D29*
%TO.C,D3*%
X231710000Y-71027500D03*
X233610000Y-71027500D03*
X232660000Y-69152500D03*
%TD*%
D20*
%TO.C,U11*%
X100520000Y-114095000D03*
D21*
X103060000Y-114095000D03*
X105600000Y-114095000D03*
X108140000Y-114095000D03*
X110680000Y-114095000D03*
X110680000Y-53895000D03*
X108140000Y-53895000D03*
X105600000Y-53895000D03*
X103060000Y-53895000D03*
X100520000Y-53895000D03*
%TD*%
D31*
%TO.C,BZ1*%
X246820000Y-119760000D03*
D32*
X254420000Y-119760000D03*
%TD*%
D10*
%TO.C,R67*%
X335057500Y-122090000D03*
X336882500Y-122090000D03*
%TD*%
D20*
%TO.C,U13*%
X197160000Y-114095000D03*
D21*
X199700000Y-114095000D03*
X202240000Y-114095000D03*
X204780000Y-114095000D03*
X207320000Y-114095000D03*
X207320000Y-53895000D03*
X204780000Y-53895000D03*
X202240000Y-53895000D03*
X199700000Y-53895000D03*
X197160000Y-53895000D03*
%TD*%
D33*
%TO.C,Q5*%
X254396250Y-83640000D03*
X254396250Y-85540000D03*
X256271250Y-84590000D03*
%TD*%
D15*
%TO.C,R79*%
X235130000Y-91485000D03*
X235130000Y-89835000D03*
%TD*%
D26*
%TO.C,R99*%
X261818750Y-82970000D03*
X259993750Y-82970000D03*
%TD*%
D29*
%TO.C,Q3*%
X233230000Y-95120000D03*
X235130000Y-95120000D03*
X234180000Y-93245000D03*
%TD*%
D19*
%TO.C,D8*%
X247783770Y-65079094D03*
X244983770Y-65079094D03*
%TD*%
D34*
%TO.C,M1*%
X341180311Y-132240000D03*
X341180311Y-129700000D03*
X341180311Y-127160000D03*
X341180311Y-124620000D03*
X341180311Y-122080000D03*
D35*
X365780311Y-128860000D03*
D36*
X366780311Y-131460000D03*
X366780311Y-126260000D03*
%TD*%
D37*
%TO.C,J6*%
X160990000Y-43890000D03*
D38*
X163530000Y-43890000D03*
X166070000Y-43890000D03*
X168610000Y-43890000D03*
%TD*%
D32*
%TO.C,SW3*%
X280000000Y-123500000D03*
X273500000Y-123500000D03*
X280000000Y-128000000D03*
X273500000Y-128000000D03*
%TD*%
D37*
%TO.C,J5*%
X173760000Y-43890000D03*
D38*
X176300000Y-43890000D03*
X178840000Y-43890000D03*
X181380000Y-43890000D03*
%TD*%
D32*
%TO.C,SW1*%
X284120000Y-46390000D03*
X290620000Y-46390000D03*
X284120000Y-41890000D03*
X290620000Y-41890000D03*
%TD*%
D37*
%TO.C,J1*%
X275870000Y-43860000D03*
D38*
X275870000Y-46400000D03*
X278410000Y-43860000D03*
X278410000Y-46400000D03*
X280950000Y-43860000D03*
X280950000Y-46400000D03*
%TD*%
D16*
%TO.C,J7*%
X163440000Y-102150000D03*
X174870000Y-102150000D03*
D20*
X164710000Y-108500000D03*
D21*
X165980000Y-111040000D03*
X167250000Y-108500000D03*
X168520000Y-111040000D03*
X169790000Y-108500000D03*
X171060000Y-111040000D03*
X172330000Y-108500000D03*
X173600000Y-111040000D03*
%TD*%
D16*
%TO.C,J4*%
X163440000Y-67650000D03*
X174870000Y-67650000D03*
D20*
X164710000Y-74000000D03*
D21*
X165980000Y-76540000D03*
X167250000Y-74000000D03*
X168520000Y-76540000D03*
X169790000Y-74000000D03*
X171060000Y-76540000D03*
X172330000Y-74000000D03*
X173600000Y-76540000D03*
%TD*%
D32*
%TO.C,SW4*%
X300000000Y-123500000D03*
X293500000Y-123500000D03*
X300000000Y-128000000D03*
X293500000Y-128000000D03*
%TD*%
D16*
%TO.C,J2*%
X229130000Y-67650000D03*
X240560000Y-67650000D03*
D20*
X230400000Y-74000000D03*
D21*
X231670000Y-76540000D03*
X232940000Y-74000000D03*
X234210000Y-76540000D03*
X235480000Y-74000000D03*
X236750000Y-76540000D03*
X238020000Y-74000000D03*
X239290000Y-76540000D03*
%TD*%
D32*
%TO.C,SW2*%
X290000000Y-123500000D03*
X283500000Y-123500000D03*
X290000000Y-128000000D03*
X283500000Y-128000000D03*
%TD*%
D37*
%TO.C,J3*%
X186450000Y-43890000D03*
D38*
X188990000Y-43890000D03*
X191530000Y-43890000D03*
X194070000Y-43890000D03*
X196610000Y-43890000D03*
%TD*%
D16*
%TO.C,J8*%
X229130000Y-102150000D03*
X240560000Y-102150000D03*
D20*
X230400000Y-108500000D03*
D21*
X231670000Y-111040000D03*
X232940000Y-108500000D03*
X234210000Y-111040000D03*
X235480000Y-108500000D03*
X236750000Y-111040000D03*
X238020000Y-108500000D03*
X239290000Y-111040000D03*
%TD*%
M02*
